<?xml version="1.0" encoding="UTF-8" standalone="no"?>
<!DOCTYPE svg PUBLIC "-//W3C//DTD SVG 1.1//EN"
 "http://www.w3.org/Graphics/SVG/1.1/DTD/svg11.dtd">
<!-- Generated by graphviz version 2.40.1 (20161225.0304)
 -->
<!-- Title: G Pages: 1 -->
<svg width="4693pt" height="412pt"
 viewBox="0.00 0.00 4693.31 411.98" xmlns="http://www.w3.org/2000/svg" xmlns:xlink="http://www.w3.org/1999/xlink">
<g id="graph0" class="graph" transform="scale(1 1) rotate(0) translate(7.992 403.992)">
<title>G</title>
<polygon fill="#000000" stroke="transparent" points="-7.992,7.992 -7.992,-403.992 4685.3215,-403.992 4685.3215,7.992 -7.992,7.992"/>
<!-- core/command&#45;handlers/ErrorValidation.js -->
<g id="node1" class="node">
<title>core/command&#45;handlers/ErrorValidation.js</title>
<ellipse fill="none" stroke="#cfffac" cx="343.8762" cy="-90" rx="186.0683" ry="18"/>
<text text-anchor="middle" x="343.8762" y="-86.8493" font-family="Arial" font-size="14.00" fill="#cfffac">core/command&#45;handlers/ErrorValidation.js</text>
</g>
<!-- core/command&#45;handlers/demande&#45;financement/create&#45;demande&#45;financement.js -->
<g id="node2" class="node">
<title>core/command&#45;handlers/demande&#45;financement/create&#45;demande&#45;financement.js</title>
<ellipse fill="none" stroke="#c6c5fe" cx="343.8762" cy="-162" rx="343.7524" ry="18"/>
<text text-anchor="middle" x="343.8762" y="-158.8493" font-family="Arial" font-size="14.00" fill="#c6c5fe">core/command&#45;handlers/demande&#45;financement/create&#45;demande&#45;financement.js</text>
</g>
<!-- core/command&#45;handlers/demande&#45;financement/create&#45;demande&#45;financement.js&#45;&gt;core/command&#45;handlers/ErrorValidation.js -->
<g id="edge1" class="edge">
<title>core/command&#45;handlers/demande&#45;financement/create&#45;demande&#45;financement.js&#45;&gt;core/command&#45;handlers/ErrorValidation.js</title>
<path fill="none" stroke="#757575" d="M343.8762,-143.8314C343.8762,-136.131 343.8762,-126.9743 343.8762,-118.4166"/>
<polygon fill="#757575" stroke="#757575" points="347.3763,-118.4132 343.8762,-108.4133 340.3763,-118.4133 347.3763,-118.4132"/>
</g>
<!-- core/command&#45;handlers/demande&#45;financement/index.js -->
<g id="node3" class="node">
<title>core/command&#45;handlers/demande&#45;financement/index.js</title>
<ellipse fill="none" stroke="#c6c5fe" cx="1773.8762" cy="-234" rx="243.1301" ry="18"/>
<text text-anchor="middle" x="1773.8762" y="-230.8493" font-family="Arial" font-size="14.00" fill="#c6c5fe">core/command&#45;handlers/demande&#45;financement/index.js</text>
</g>
<!-- core/command&#45;handlers/demande&#45;financement/index.js&#45;&gt;core/command&#45;handlers/demande&#45;financement/create&#45;demande&#45;financement.js -->
<g id="edge2" class="edge">
<title>core/command&#45;handlers/demande&#45;financement/index.js&#45;&gt;core/command&#45;handlers/demande&#45;financement/create&#45;demande&#45;financement.js</title>
<path fill="none" stroke="#757575" d="M1571.9027,-223.9245C1355.4796,-213.1162 1001.8794,-195.4226 696.8762,-180 665.6347,-178.4203 632.8382,-176.7559 600.3448,-175.1033"/>
<polygon fill="#757575" stroke="#757575" points="600.4374,-171.6036 590.2724,-174.5909 600.0817,-178.5946 600.4374,-171.6036"/>
</g>
<!-- core/command&#45;handlers/demande&#45;financement/patch&#45;demande&#45;financement.js -->
<g id="node4" class="node">
<title>core/command&#45;handlers/demande&#45;financement/patch&#45;demande&#45;financement.js</title>
<ellipse fill="none" stroke="#c6c5fe" cx="1046.8762" cy="-162" rx="340.9769" ry="18"/>
<text text-anchor="middle" x="1046.8762" y="-158.8493" font-family="Arial" font-size="14.00" fill="#c6c5fe">core/command&#45;handlers/demande&#45;financement/patch&#45;demande&#45;financement.js</text>
</g>
<!-- core/command&#45;handlers/demande&#45;financement/index.js&#45;&gt;core/command&#45;handlers/demande&#45;financement/patch&#45;demande&#45;financement.js -->
<g id="edge3" class="edge">
<title>core/command&#45;handlers/demande&#45;financement/index.js&#45;&gt;core/command&#45;handlers/demande&#45;financement/patch&#45;demande&#45;financement.js</title>
<path fill="none" stroke="#757575" d="M1628.068,-219.5596C1509.5175,-207.8187 1342.0588,-191.234 1217.3247,-178.8807"/>
<polygon fill="#757575" stroke="#757575" points="1217.5829,-175.3893 1207.2866,-177.8866 1216.893,-182.3552 1217.5829,-175.3893"/>
</g>
<!-- core/domain/demande&#45;financement.js -->
<g id="node5" class="node">
<title>core/domain/demande&#45;financement.js</title>
<ellipse fill="none" stroke="#c6c5fe" cx="1773.8762" cy="-162" rx="168.3441" ry="18"/>
<text text-anchor="middle" x="1773.8762" y="-158.8493" font-family="Arial" font-size="14.00" fill="#c6c5fe">core/domain/demande&#45;financement.js</text>
</g>
<!-- core/command&#45;handlers/demande&#45;financement/index.js&#45;&gt;core/domain/demande&#45;financement.js -->
<g id="edge4" class="edge">
<title>core/command&#45;handlers/demande&#45;financement/index.js&#45;&gt;core/domain/demande&#45;financement.js</title>
<path fill="none" stroke="#757575" d="M1773.8762,-215.8314C1773.8762,-208.131 1773.8762,-198.9743 1773.8762,-190.4166"/>
<polygon fill="#757575" stroke="#757575" points="1777.3763,-190.4132 1773.8762,-180.4133 1770.3763,-190.4133 1777.3763,-190.4132"/>
</g>
<!-- core/domain/permissions.js -->
<g id="node6" class="node">
<title>core/domain/permissions.js</title>
<ellipse fill="none" stroke="#c6c5fe" cx="2573.8762" cy="-162" rx="124.8601" ry="18"/>
<text text-anchor="middle" x="2573.8762" y="-158.8493" font-family="Arial" font-size="14.00" fill="#c6c5fe">core/domain/permissions.js</text>
</g>
<!-- core/command&#45;handlers/demande&#45;financement/index.js&#45;&gt;core/domain/permissions.js -->
<g id="edge5" class="edge">
<title>core/command&#45;handlers/demande&#45;financement/index.js&#45;&gt;core/domain/permissions.js</title>
<path fill="none" stroke="#757575" d="M1928.5983,-220.075C2083.3599,-206.1465 2317.9076,-185.0372 2457.5126,-172.4727"/>
<polygon fill="#757575" stroke="#757575" points="2458.1664,-175.9281 2467.8124,-171.5457 2457.5389,-168.9563 2458.1664,-175.9281"/>
</g>
<!-- core/repositories/repository.js -->
<g id="node7" class="node">
<title>core/repositories/repository.js</title>
<ellipse fill="none" stroke="#c6c5fe" cx="3116.8762" cy="-162" rx="133.2669" ry="18"/>
<text text-anchor="middle" x="3116.8762" y="-158.8493" font-family="Arial" font-size="14.00" fill="#c6c5fe">core/repositories/repository.js</text>
</g>
<!-- core/command&#45;handlers/demande&#45;financement/index.js&#45;&gt;core/repositories/repository.js -->
<g id="edge6" class="edge">
<title>core/command&#45;handlers/demande&#45;financement/index.js&#45;&gt;core/repositories/repository.js</title>
<path fill="none" stroke="#757575" d="M1946.0018,-221.2542C1973.0601,-219.3948 2000.7231,-217.578 2026.8762,-216 2369.4902,-195.3278 2773.0394,-176.8715 2979.7125,-167.8469"/>
<polygon fill="#757575" stroke="#757575" points="2979.8691,-171.3435 2989.7072,-167.4111 2979.5642,-164.3501 2979.8691,-171.3435"/>
</g>
<!-- core/command&#45;handlers/demande&#45;financement/patch&#45;demande&#45;financement.js&#45;&gt;core/command&#45;handlers/ErrorValidation.js -->
<g id="edge7" class="edge">
<title>core/command&#45;handlers/demande&#45;financement/patch&#45;demande&#45;financement.js&#45;&gt;core/command&#45;handlers/ErrorValidation.js</title>
<path fill="none" stroke="#757575" d="M890.4212,-145.9762C767.9605,-133.434 599.283,-116.1583 481.8301,-104.129"/>
<polygon fill="#757575" stroke="#757575" points="481.9979,-100.628 471.6933,-103.0908 481.2846,-107.5915 481.9979,-100.628"/>
</g>
<!-- core/domain/demande&#45;financement&#45;id.js -->
<g id="node8" class="node">
<title>core/domain/demande&#45;financement&#45;id.js</title>
<ellipse fill="none" stroke="#cfffac" cx="726.8762" cy="-90" rx="178.7873" ry="18"/>
<text text-anchor="middle" x="726.8762" y="-86.8493" font-family="Arial" font-size="14.00" fill="#cfffac">core/domain/demande&#45;financement&#45;id.js</text>
</g>
<!-- core/command&#45;handlers/demande&#45;financement/patch&#45;demande&#45;financement.js&#45;&gt;core/domain/demande&#45;financement&#45;id.js -->
<g id="edge8" class="edge">
<title>core/command&#45;handlers/demande&#45;financement/patch&#45;demande&#45;financement.js&#45;&gt;core/domain/demande&#45;financement&#45;id.js</title>
<path fill="none" stroke="#757575" d="M968.5954,-144.3868C920.4723,-133.5591 858.8673,-119.698 809.8948,-108.6792"/>
<polygon fill="#757575" stroke="#757575" points="810.486,-105.2248 799.9616,-106.4442 808.9493,-112.054 810.486,-105.2248"/>
</g>
<!-- core/domain/demande&#45;financement.js&#45;&gt;core/domain/demande&#45;financement&#45;id.js -->
<g id="edge10" class="edge">
<title>core/domain/demande&#45;financement.js&#45;&gt;core/domain/demande&#45;financement&#45;id.js</title>
<path fill="none" stroke="#757575" d="M1622.8669,-154.0032C1451.2243,-144.5661 1162.7065,-127.6487 914.8762,-108 898.3457,-106.6894 881.0093,-105.1941 863.8306,-103.6383"/>
<polygon fill="#757575" stroke="#757575" points="864.0186,-100.141 853.7415,-102.7162 863.3814,-107.1119 864.0186,-100.141"/>
</g>
<!-- core/domain/events/demande&#45;financement&#45;created.js -->
<g id="node11" class="node">
<title>core/domain/events/demande&#45;financement&#45;created.js</title>
<ellipse fill="none" stroke="#c6c5fe" cx="1156.8762" cy="-90" rx="233.2359" ry="18"/>
<text text-anchor="middle" x="1156.8762" y="-86.8493" font-family="Arial" font-size="14.00" fill="#c6c5fe">core/domain/events/demande&#45;financement&#45;created.js</text>
</g>
<!-- core/domain/demande&#45;financement.js&#45;&gt;core/domain/events/demande&#45;financement&#45;created.js -->
<g id="edge11" class="edge">
<title>core/domain/demande&#45;financement.js&#45;&gt;core/domain/events/demande&#45;financement&#45;created.js</title>
<path fill="none" stroke="#757575" d="M1659.9898,-148.7102C1557.1726,-136.7121 1405.6095,-119.0256 1295.724,-106.2027"/>
<polygon fill="#757575" stroke="#757575" points="1295.8955,-102.699 1285.5572,-105.0163 1295.0841,-109.6518 1295.8955,-102.699"/>
</g>
<!-- core/domain/events/demande&#45;financement&#45;deleted.js -->
<g id="node12" class="node">
<title>core/domain/events/demande&#45;financement&#45;deleted.js</title>
<ellipse fill="none" stroke="#c6c5fe" cx="1640.8762" cy="-90" rx="232.7053" ry="18"/>
<text text-anchor="middle" x="1640.8762" y="-86.8493" font-family="Arial" font-size="14.00" fill="#c6c5fe">core/domain/events/demande&#45;financement&#45;deleted.js</text>
</g>
<!-- core/domain/demande&#45;financement.js&#45;&gt;core/domain/events/demande&#45;financement&#45;deleted.js -->
<g id="edge12" class="edge">
<title>core/domain/demande&#45;financement.js&#45;&gt;core/domain/events/demande&#45;financement&#45;deleted.js</title>
<path fill="none" stroke="#757575" d="M1740.9998,-144.2022C1723.4154,-134.6829 1701.5745,-122.8593 1682.7832,-112.6865"/>
<polygon fill="#757575" stroke="#757575" points="1684.2957,-109.5254 1673.8353,-107.8425 1680.9631,-115.6812 1684.2957,-109.5254"/>
</g>
<!-- core/domain/events/demande&#45;financement&#45;updated.js -->
<g id="node13" class="node">
<title>core/domain/events/demande&#45;financement&#45;updated.js</title>
<ellipse fill="none" stroke="#c6c5fe" cx="2127.8762" cy="-90" rx="235.9992" ry="18"/>
<text text-anchor="middle" x="2127.8762" y="-86.8493" font-family="Arial" font-size="14.00" fill="#c6c5fe">core/domain/events/demande&#45;financement&#45;updated.js</text>
</g>
<!-- core/domain/demande&#45;financement.js&#45;&gt;core/domain/events/demande&#45;financement&#45;updated.js -->
<g id="edge13" class="edge">
<title>core/domain/demande&#45;financement.js&#45;&gt;core/domain/events/demande&#45;financement&#45;updated.js</title>
<path fill="none" stroke="#757575" d="M1852.4403,-146.0209C1906.3402,-135.0582 1978.0969,-120.4636 2034.856,-108.9194"/>
<polygon fill="#757575" stroke="#757575" points="2035.8086,-112.2974 2044.9103,-106.8744 2034.4134,-105.4378 2035.8086,-112.2974"/>
</g>
<!-- core/domain/utils/decision&#45;projection.js -->
<g id="node14" class="node">
<title>core/domain/utils/decision&#45;projection.js</title>
<ellipse fill="none" stroke="#cfffac" cx="2554.8762" cy="-90" rx="172.6993" ry="18"/>
<text text-anchor="middle" x="2554.8762" y="-86.8493" font-family="Arial" font-size="14.00" fill="#cfffac">core/domain/utils/decision&#45;projection.js</text>
</g>
<!-- core/domain/demande&#45;financement.js&#45;&gt;core/domain/utils/decision&#45;projection.js -->
<g id="edge14" class="edge">
<title>core/domain/demande&#45;financement.js&#45;&gt;core/domain/utils/decision&#45;projection.js</title>
<path fill="none" stroke="#757575" d="M1904.1917,-150.58C2025.5511,-139.867 2211.4916,-123.2547 2372.8762,-108 2388.0455,-106.5661 2403.923,-105.0373 2419.7102,-103.4996"/>
<polygon fill="#757575" stroke="#757575" points="2420.4508,-106.944 2430.0633,-102.4887 2419.7704,-99.9771 2420.4508,-106.944"/>
</g>
<!-- core/domain/utils/idGenerator.js -->
<g id="node15" class="node">
<title>core/domain/utils/idGenerator.js</title>
<ellipse fill="none" stroke="#cfffac" cx="1883.8762" cy="-18" rx="143.0477" ry="18"/>
<text text-anchor="middle" x="1883.8762" y="-14.8493" font-family="Arial" font-size="14.00" fill="#cfffac">core/domain/utils/idGenerator.js</text>
</g>
<!-- core/domain/demande&#45;financement.js&#45;&gt;core/domain/utils/idGenerator.js -->
<g id="edge15" class="edge">
<title>core/domain/demande&#45;financement.js&#45;&gt;core/domain/utils/idGenerator.js</title>
<path fill="none" stroke="#757575" d="M1939.374,-158.5637C2207.5321,-152.1768 2709.958,-136.4699 2736.8762,-108 2747.8686,-96.3739 2747.8267,-83.6656 2736.8762,-72 2713.2388,-46.8189 2272.7224,-29.7008 2034.2622,-22.2382"/>
<polygon fill="#757575" stroke="#757575" points="2034.2177,-18.7352 2024.1137,-21.9226 2034.0001,-25.7318 2034.2177,-18.7352"/>
</g>
<!-- core/domain/ErrorPermissions.js -->
<g id="node10" class="node">
<title>core/domain/ErrorPermissions.js</title>
<ellipse fill="none" stroke="#cfffac" cx="2930.8762" cy="-90" rx="146.826" ry="18"/>
<text text-anchor="middle" x="2930.8762" y="-86.8493" font-family="Arial" font-size="14.00" fill="#cfffac">core/domain/ErrorPermissions.js</text>
</g>
<!-- core/domain/permissions.js&#45;&gt;core/domain/ErrorPermissions.js -->
<g id="edge19" class="edge">
<title>core/domain/permissions.js&#45;&gt;core/domain/ErrorPermissions.js</title>
<path fill="none" stroke="#757575" d="M2646.5508,-147.3429C2703.8106,-135.7947 2783.8088,-119.6607 2844.3678,-107.4471"/>
<polygon fill="#757575" stroke="#757575" points="2845.1831,-110.8532 2854.2937,-105.4452 2843.7991,-103.9914 2845.1831,-110.8532"/>
</g>
<!-- core/repositories/ErrorNotFound.js -->
<g id="node24" class="node">
<title>core/repositories/ErrorNotFound.js</title>
<ellipse fill="none" stroke="#cfffac" cx="3250.8762" cy="-90" rx="154.5612" ry="18"/>
<text text-anchor="middle" x="3250.8762" y="-86.8493" font-family="Arial" font-size="14.00" fill="#cfffac">core/repositories/ErrorNotFound.js</text>
</g>
<!-- core/repositories/repository.js&#45;&gt;core/repositories/ErrorNotFound.js -->
<g id="edge24" class="edge">
<title>core/repositories/repository.js&#45;&gt;core/repositories/ErrorNotFound.js</title>
<path fill="none" stroke="#757575" d="M3149.6563,-144.3868C3167.5823,-134.7549 3189.9758,-122.7226 3209.139,-112.4259"/>
<polygon fill="#757575" stroke="#757575" points="3210.8178,-115.4972 3217.9701,-107.6809 3207.5045,-109.331 3210.8178,-115.4972"/>
</g>
<!-- core/command&#45;handlers/index.js -->
<g id="node9" class="node">
<title>core/command&#45;handlers/index.js</title>
<ellipse fill="none" stroke="#c6c5fe" cx="2126.8762" cy="-306" rx="146.872" ry="18"/>
<text text-anchor="middle" x="2126.8762" y="-302.8493" font-family="Arial" font-size="14.00" fill="#c6c5fe">core/command&#45;handlers/index.js</text>
</g>
<!-- core/command&#45;handlers/index.js&#45;&gt;core/command&#45;handlers/demande&#45;financement/index.js -->
<g id="edge9" class="edge">
<title>core/command&#45;handlers/index.js&#45;&gt;core/command&#45;handlers/demande&#45;financement/index.js</title>
<path fill="none" stroke="#757575" d="M2051.1488,-290.5542C1997.1444,-279.5391 1924.2108,-264.6631 1866.6993,-252.9328"/>
<polygon fill="#757575" stroke="#757575" points="1867.3772,-249.499 1856.8795,-250.9298 1865.9782,-256.3578 1867.3772,-249.499"/>
</g>
<!-- core/domain/events/demande&#45;financement&#45;created.js&#45;&gt;core/domain/utils/idGenerator.js -->
<g id="edge16" class="edge">
<title>core/domain/events/demande&#45;financement&#45;created.js&#45;&gt;core/domain/utils/idGenerator.js</title>
<path fill="none" stroke="#757575" d="M1300.508,-75.7751C1434.9751,-62.4579 1633.7409,-42.7727 1761.025,-30.1668"/>
<polygon fill="#757575" stroke="#757575" points="1761.5998,-33.6271 1771.2061,-29.1585 1760.9098,-26.6612 1761.5998,-33.6271"/>
</g>
<!-- core/domain/events/demande&#45;financement&#45;deleted.js&#45;&gt;core/domain/utils/idGenerator.js -->
<g id="edge17" class="edge">
<title>core/domain/events/demande&#45;financement&#45;deleted.js&#45;&gt;core/domain/utils/idGenerator.js</title>
<path fill="none" stroke="#757575" d="M1699.6997,-72.5708C1735.416,-61.9882 1781.0829,-48.4573 1818.0074,-37.5167"/>
<polygon fill="#757575" stroke="#757575" points="1819.0899,-40.8464 1827.6835,-34.6497 1817.1012,-34.1348 1819.0899,-40.8464"/>
</g>
<!-- core/domain/events/demande&#45;financement&#45;updated.js&#45;&gt;core/domain/utils/idGenerator.js -->
<g id="edge18" class="edge">
<title>core/domain/events/demande&#45;financement&#45;updated.js&#45;&gt;core/domain/utils/idGenerator.js</title>
<path fill="none" stroke="#757575" d="M2068.8106,-72.5708C2032.9473,-61.9882 1987.0925,-48.4573 1950.016,-37.5167"/>
<polygon fill="#757575" stroke="#757575" points="1950.8818,-34.123 1940.3001,-34.6497 1948.9006,-40.8368 1950.8818,-34.123"/>
</g>
<!-- core/infrastructure/EventDontContainsAggregateId.js -->
<g id="node16" class="node">
<title>core/infrastructure/EventDontContainsAggregateId.js</title>
<ellipse fill="none" stroke="#cfffac" cx="2266.8762" cy="-234" rx="231.04" ry="18"/>
<text text-anchor="middle" x="2266.8762" y="-230.8493" font-family="Arial" font-size="14.00" fill="#cfffac">core/infrastructure/EventDontContainsAggregateId.js</text>
</g>
<!-- core/infrastructure/EventDontContainsAuthor.js -->
<g id="node17" class="node">
<title>core/infrastructure/EventDontContainsAuthor.js</title>
<ellipse fill="none" stroke="#cfffac" cx="2722.8762" cy="-234" rx="207.3413" ry="18"/>
<text text-anchor="middle" x="2722.8762" y="-230.8493" font-family="Arial" font-size="14.00" fill="#cfffac">core/infrastructure/EventDontContainsAuthor.js</text>
</g>
<!-- core/infrastructure/EventDontContainsId.js -->
<g id="node18" class="node">
<title>core/infrastructure/EventDontContainsId.js</title>
<ellipse fill="none" stroke="#cfffac" cx="3135.8762" cy="-234" rx="187.5744" ry="18"/>
<text text-anchor="middle" x="3135.8762" y="-230.8493" font-family="Arial" font-size="14.00" fill="#cfffac">core/infrastructure/EventDontContainsId.js</text>
</g>
<!-- core/infrastructure/EventDontContainsTimestamp.js -->
<g id="node19" class="node">
<title>core/infrastructure/EventDontContainsTimestamp.js</title>
<ellipse fill="none" stroke="#cfffac" cx="3567.8762" cy="-234" rx="226.3536" ry="18"/>
<text text-anchor="middle" x="3567.8762" y="-230.8493" font-family="Arial" font-size="14.00" fill="#cfffac">core/infrastructure/EventDontContainsTimestamp.js</text>
</g>
<!-- core/infrastructure/event&#45;publisher.js -->
<g id="node20" class="node">
<title>core/infrastructure/event&#45;publisher.js</title>
<ellipse fill="none" stroke="#cfffac" cx="2601.8762" cy="-306" rx="162.796" ry="18"/>
<text text-anchor="middle" x="2601.8762" y="-302.8493" font-family="Arial" font-size="14.00" fill="#cfffac">core/infrastructure/event&#45;publisher.js</text>
</g>
<!-- core/infrastructure/event&#45;store.js -->
<g id="node21" class="node">
<title>core/infrastructure/event&#45;store.js</title>
<ellipse fill="none" stroke="#c6c5fe" cx="2928.8762" cy="-306" rx="145.7557" ry="18"/>
<text text-anchor="middle" x="2928.8762" y="-302.8493" font-family="Arial" font-size="14.00" fill="#c6c5fe">core/infrastructure/event&#45;store.js</text>
</g>
<!-- core/infrastructure/event&#45;store.js&#45;&gt;core/infrastructure/EventDontContainsAggregateId.js -->
<g id="edge20" class="edge">
<title>core/infrastructure/event&#45;store.js&#45;&gt;core/infrastructure/EventDontContainsAggregateId.js</title>
<path fill="none" stroke="#757575" d="M2823.001,-293.569C2806.5576,-291.6776 2789.7615,-289.7683 2773.8762,-288 2653.4029,-274.5893 2516.7435,-260.0744 2415.6871,-249.4739"/>
<polygon fill="#757575" stroke="#757575" points="2416.0224,-245.9899 2405.712,-248.4281 2415.2925,-252.9518 2416.0224,-245.9899"/>
</g>
<!-- core/infrastructure/event&#45;store.js&#45;&gt;core/infrastructure/EventDontContainsAuthor.js -->
<g id="edge21" class="edge">
<title>core/infrastructure/event&#45;store.js&#45;&gt;core/infrastructure/EventDontContainsAuthor.js</title>
<path fill="none" stroke="#757575" d="M2880.0571,-288.937C2850.9626,-278.7681 2813.8053,-265.781 2782.9235,-254.9874"/>
<polygon fill="#757575" stroke="#757575" points="2783.7305,-251.5619 2773.1356,-251.5664 2781.4208,-258.1699 2783.7305,-251.5619"/>
</g>
<!-- core/infrastructure/event&#45;store.js&#45;&gt;core/infrastructure/EventDontContainsId.js -->
<g id="edge22" class="edge">
<title>core/infrastructure/event&#45;store.js&#45;&gt;core/infrastructure/EventDontContainsId.js</title>
<path fill="none" stroke="#757575" d="M2977.6702,-289.0282C3007.2421,-278.7423 3045.1754,-265.5481 3076.4845,-254.658"/>
<polygon fill="#757575" stroke="#757575" points="3077.6767,-257.949 3085.9719,-251.358 3075.3771,-251.3376 3077.6767,-257.949"/>
</g>
<!-- core/infrastructure/event&#45;store.js&#45;&gt;core/infrastructure/EventDontContainsTimestamp.js -->
<g id="edge23" class="edge">
<title>core/infrastructure/event&#45;store.js&#45;&gt;core/infrastructure/EventDontContainsTimestamp.js</title>
<path fill="none" stroke="#757575" d="M3035.1774,-293.5912C3051.4862,-291.706 3068.1299,-289.7927 3083.8762,-288 3198.6824,-274.9294 3328.8457,-260.4248 3425.2513,-249.7421"/>
<polygon fill="#757575" stroke="#757575" points="3425.8037,-253.2024 3435.3575,-248.6226 3425.0329,-246.245 3425.8037,-253.2024"/>
</g>
<!-- core/infrastructure/logger.js -->
<g id="node22" class="node">
<title>core/infrastructure/logger.js</title>
<ellipse fill="none" stroke="#cfffac" cx="3216.8762" cy="-306" rx="124.3295" ry="18"/>
<text text-anchor="middle" x="3216.8762" y="-302.8493" font-family="Arial" font-size="14.00" fill="#cfffac">core/infrastructure/logger.js</text>
</g>
<!-- core/messaging/index.js -->
<g id="node23" class="node">
<title>core/messaging/index.js</title>
<ellipse fill="none" stroke="#cfffac" cx="3470.8762" cy="-306" rx="111.6997" ry="18"/>
<text text-anchor="middle" x="3470.8762" y="-302.8493" font-family="Arial" font-size="14.00" fill="#cfffac">core/messaging/index.js</text>
</g>
<!-- rest&#45;api/app.js -->
<g id="node25" class="node">
<title>rest&#45;api/app.js</title>
<ellipse fill="none" stroke="#c6c5fe" cx="4054.8762" cy="-306" rx="69.8993" ry="18"/>
<text text-anchor="middle" x="4054.8762" y="-302.8493" font-family="Arial" font-size="14.00" fill="#c6c5fe">rest&#45;api/app.js</text>
</g>
<!-- rest&#45;api/errors/HTTPRequestShouldHaveXRequestID.js -->
<g id="node26" class="node">
<title>rest&#45;api/errors/HTTPRequestShouldHaveXRequestID.js</title>
<ellipse fill="none" stroke="#cfffac" cx="4054.8762" cy="-234" rx="243.0749" ry="18"/>
<text text-anchor="middle" x="4054.8762" y="-230.8493" font-family="Arial" font-size="14.00" fill="#cfffac">rest&#45;api/errors/HTTPRequestShouldHaveXRequestID.js</text>
</g>
<!-- rest&#45;api/app.js&#45;&gt;rest&#45;api/errors/HTTPRequestShouldHaveXRequestID.js -->
<g id="edge25" class="edge">
<title>rest&#45;api/app.js&#45;&gt;rest&#45;api/errors/HTTPRequestShouldHaveXRequestID.js</title>
<path fill="none" stroke="#757575" d="M4054.8762,-287.8314C4054.8762,-280.131 4054.8762,-270.9743 4054.8762,-262.4166"/>
<polygon fill="#757575" stroke="#757575" points="4058.3763,-262.4132 4054.8762,-252.4133 4051.3763,-262.4133 4058.3763,-262.4132"/>
</g>
<!-- rest&#45;api/middlewares/ensure&#45;logged&#45;in.js -->
<g id="node27" class="node">
<title>rest&#45;api/middlewares/ensure&#45;logged&#45;in.js</title>
<ellipse fill="none" stroke="#cfffac" cx="4496.8762" cy="-234" rx="180.4066" ry="18"/>
<text text-anchor="middle" x="4496.8762" y="-230.8493" font-family="Arial" font-size="14.00" fill="#cfffac">rest&#45;api/middlewares/ensure&#45;logged&#45;in.js</text>
</g>
<!-- rest&#45;api/app.js&#45;&gt;rest&#45;api/middlewares/ensure&#45;logged&#45;in.js -->
<g id="edge26" class="edge">
<title>rest&#45;api/app.js&#45;&gt;rest&#45;api/middlewares/ensure&#45;logged&#45;in.js</title>
<path fill="none" stroke="#757575" d="M4114.0276,-296.3645C4185.1508,-284.7788 4305.7801,-265.1288 4392.6447,-250.9789"/>
<polygon fill="#757575" stroke="#757575" points="4393.2255,-254.4305 4402.5326,-249.3682 4392.1,-247.5216 4393.2255,-254.4305"/>
</g>
<!-- server.js -->
<g id="node28" class="node">
<title>server.js</title>
<ellipse fill="none" stroke="#c6c5fe" cx="3072.8762" cy="-378" rx="45.7011" ry="18"/>
<text text-anchor="middle" x="3072.8762" y="-374.8493" font-family="Arial" font-size="14.00" fill="#c6c5fe">server.js</text>
</g>
<!-- server.js&#45;&gt;core/command&#45;handlers/index.js -->
<g id="edge27" class="edge">
<title>server.js&#45;&gt;core/command&#45;handlers/index.js</title>
<path fill="none" stroke="#757575" d="M3027.5673,-374.5515C2890.7683,-364.1398 2478.0918,-332.731 2262.0536,-316.2883"/>
<polygon fill="#757575" stroke="#757575" points="2262.1534,-312.7859 2251.9165,-315.5168 2261.6221,-319.7657 2262.1534,-312.7859"/>
</g>
<!-- server.js&#45;&gt;core/infrastructure/event&#45;publisher.js -->
<g id="edge28" class="edge">
<title>server.js&#45;&gt;core/infrastructure/event&#45;publisher.js</title>
<path fill="none" stroke="#757575" d="M3029.8295,-371.4196C2957.4136,-360.3497 2809.1986,-337.6926 2707.6922,-322.1757"/>
<polygon fill="#757575" stroke="#757575" points="2708.1258,-318.7014 2697.7117,-320.65 2707.068,-325.621 2708.1258,-318.7014"/>
</g>
<!-- server.js&#45;&gt;core/infrastructure/event&#45;store.js -->
<g id="edge29" class="edge">
<title>server.js&#45;&gt;core/infrastructure/event&#45;store.js</title>
<path fill="none" stroke="#757575" d="M3044.4264,-363.7751C3024.021,-353.5724 2996.1402,-339.632 2972.878,-328.0009"/>
<polygon fill="#757575" stroke="#757575" points="2974.3963,-324.847 2963.8868,-323.5053 2971.2658,-331.108 2974.3963,-324.847"/>
</g>
<!-- server.js&#45;&gt;core/infrastructure/logger.js -->
<g id="edge30" class="edge">
<title>server.js&#45;&gt;core/infrastructure/logger.js</title>
<path fill="none" stroke="#757575" d="M3101.3259,-363.7751C3121.8037,-353.5362 3149.81,-339.5331 3173.1216,-327.8773"/>
<polygon fill="#757575" stroke="#757575" points="3174.7492,-330.9767 3182.1282,-323.374 3171.6187,-324.7157 3174.7492,-330.9767"/>
</g>
<!-- server.js&#45;&gt;core/messaging/index.js -->
<g id="edge31" class="edge">
<title>server.js&#45;&gt;core/messaging/index.js</title>
<path fill="none" stroke="#757575" d="M3114.7169,-370.4308C3178.8686,-358.8255 3302.8455,-336.3975 3386.2468,-321.3098"/>
<polygon fill="#757575" stroke="#757575" points="3386.9926,-324.7318 3396.2098,-319.5075 3385.7464,-317.8436 3386.9926,-324.7318"/>
</g>
<!-- server.js&#45;&gt;rest&#45;api/app.js -->
<g id="edge32" class="edge">
<title>server.js&#45;&gt;rest&#45;api/app.js</title>
<path fill="none" stroke="#757575" d="M3118.2706,-374.6717C3273.0785,-363.3212 3781.4971,-326.0441 3977.1671,-311.6976"/>
<polygon fill="#757575" stroke="#757575" points="3977.6488,-315.1718 3987.3661,-310.9498 3977.1369,-308.1905 3977.6488,-315.1718"/>
</g>
</g>
</svg>
