<?xml version="1.0" encoding="UTF-8" standalone="no"?>
<!DOCTYPE svg PUBLIC "-//W3C//DTD SVG 1.1//EN"
 "http://www.w3.org/Graphics/SVG/1.1/DTD/svg11.dtd">
<!-- Generated by graphviz version 2.40.1 (20161225.0304)
 -->
<!-- Title: G Pages: 1 -->
<svg width="4421pt" height="700pt"
 viewBox="0.00 0.00 4420.67 699.98" xmlns="http://www.w3.org/2000/svg" xmlns:xlink="http://www.w3.org/1999/xlink">
<g id="graph0" class="graph" transform="scale(1 1) rotate(0) translate(7.992 691.992)">
<title>G</title>
<polygon fill="#000000" stroke="transparent" points="-7.992,7.992 -7.992,-691.992 4412.6786,-691.992 4412.6786,7.992 -7.992,7.992"/>
<!-- server.js -->
<g id="node1" class="node">
<title>server.js</title>
<ellipse fill="none" stroke="#c6c5fe" cx="3472.3032" cy="-666" rx="45.7011" ry="18"/>
<text text-anchor="middle" x="3472.3032" y="-662.8493" font-family="Arial" font-size="14.00" fill="#c6c5fe">server.js</text>
</g>
<!-- src/command&#45;handlers/index.js -->
<g id="node2" class="node">
<title>src/command&#45;handlers/index.js</title>
<ellipse fill="none" stroke="#c6c5fe" cx="2550.3032" cy="-594" rx="141.3332" ry="18"/>
<text text-anchor="middle" x="2550.3032" y="-590.8493" font-family="Arial" font-size="14.00" fill="#c6c5fe">src/command&#45;handlers/index.js</text>
</g>
<!-- server.js&#45;&gt;src/command&#45;handlers/index.js -->
<g id="edge1" class="edge">
<title>server.js&#45;&gt;src/command&#45;handlers/index.js</title>
<path fill="none" stroke="#757575" d="M3427.2091,-662.4786C3292.7483,-651.9784 2890.9416,-620.6008 2681.1275,-604.2162"/>
<polygon fill="#757575" stroke="#757575" points="2681.2176,-600.7127 2670.9755,-603.4234 2680.6726,-607.6914 2681.2176,-600.7127"/>
</g>
<!-- src/interfaces/http/app.js -->
<g id="node3" class="node">
<title>src/interfaces/http/app.js</title>
<ellipse fill="none" stroke="#c6c5fe" cx="3221.3032" cy="-594" rx="112.7884" ry="18"/>
<text text-anchor="middle" x="3221.3032" y="-590.8493" font-family="Arial" font-size="14.00" fill="#c6c5fe">src/interfaces/http/app.js</text>
</g>
<!-- server.js&#45;&gt;src/interfaces/http/app.js -->
<g id="edge2" class="edge">
<title>server.js&#45;&gt;src/interfaces/http/app.js</title>
<path fill="none" stroke="#757575" d="M3435.2673,-655.3762C3396.1827,-644.1646 3333.8074,-626.2721 3286.465,-612.6918"/>
<polygon fill="#757575" stroke="#757575" points="3287.1821,-609.2564 3276.6047,-609.8634 3285.2519,-615.9851 3287.1821,-609.2564"/>
</g>
<!-- src/modules/infrastructure/index.js -->
<g id="node4" class="node">
<title>src/modules/infrastructure/index.js</title>
<ellipse fill="none" stroke="#c6c5fe" cx="2742.3032" cy="-162" rx="153.9633" ry="18"/>
<text text-anchor="middle" x="2742.3032" y="-158.8493" font-family="Arial" font-size="14.00" fill="#c6c5fe">src/modules/infrastructure/index.js</text>
</g>
<!-- server.js&#45;&gt;src/modules/infrastructure/index.js -->
<g id="edge3" class="edge">
<title>server.js&#45;&gt;src/modules/infrastructure/index.js</title>
<path fill="none" stroke="#757575" d="M3472.3032,-647.8146C3472.3032,-620.4983 3472.3032,-567.25 3472.3032,-522 3472.3032,-522 3472.3032,-522 3472.3032,-306 3472.3032,-260.6667 3462.2247,-240.841 3424.3032,-216 3381.682,-188.0804 3089.7874,-173.3278 2901.9366,-166.6346"/>
<polygon fill="#757575" stroke="#757575" points="2901.7928,-163.1275 2891.6758,-166.2733 2901.5464,-170.1231 2901.7928,-163.1275"/>
</g>
<!-- src/modules/infrastructure/src/bus/command.kafka.js -->
<g id="node5" class="node">
<title>src/modules/infrastructure/src/bus/command.kafka.js</title>
<ellipse fill="none" stroke="#cfffac" cx="3731.3032" cy="-594" rx="230.9082" ry="18"/>
<text text-anchor="middle" x="3731.3032" y="-590.8493" font-family="Arial" font-size="14.00" fill="#cfffac">src/modules/infrastructure/src/bus/command.kafka.js</text>
</g>
<!-- server.js&#45;&gt;src/modules/infrastructure/src/bus/command.kafka.js -->
<g id="edge4" class="edge">
<title>server.js&#45;&gt;src/modules/infrastructure/src/bus/command.kafka.js</title>
<path fill="none" stroke="#757575" d="M3509.964,-655.5306C3548.8815,-644.7118 3610.5977,-627.5552 3658.9859,-614.1037"/>
<polygon fill="#757575" stroke="#757575" points="3660.088,-617.4301 3668.7852,-611.3795 3658.2131,-610.6858 3660.088,-617.4301"/>
</g>
<!-- src/modules/infrastructure/src/bus/event.kafka.js -->
<g id="node6" class="node">
<title>src/modules/infrastructure/src/bus/event.kafka.js</title>
<ellipse fill="none" stroke="#cfffac" cx="4192.3032" cy="-594" rx="212.2667" ry="18"/>
<text text-anchor="middle" x="4192.3032" y="-590.8493" font-family="Arial" font-size="14.00" fill="#cfffac">src/modules/infrastructure/src/bus/event.kafka.js</text>
</g>
<!-- server.js&#45;&gt;src/modules/infrastructure/src/bus/event.kafka.js -->
<g id="edge5" class="edge">
<title>server.js&#45;&gt;src/modules/infrastructure/src/bus/event.kafka.js</title>
<path fill="none" stroke="#757575" d="M3516.7991,-661.5504C3619.8793,-651.2424 3878.8622,-625.3441 4044.5486,-608.7755"/>
<polygon fill="#757575" stroke="#757575" points="4045.2285,-612.225 4054.8306,-607.7473 4044.532,-605.2598 4045.2285,-612.225"/>
</g>
<!-- src/command&#45;handlers/demande&#45;financement/index.js -->
<g id="node12" class="node">
<title>src/command&#45;handlers/demande&#45;financement/index.js</title>
<ellipse fill="none" stroke="#c6c5fe" cx="2151.3032" cy="-522" rx="237.591" ry="18"/>
<text text-anchor="middle" x="2151.3032" y="-518.8493" font-family="Arial" font-size="14.00" fill="#c6c5fe">src/command&#45;handlers/demande&#45;financement/index.js</text>
</g>
<!-- src/command&#45;handlers/index.js&#45;&gt;src/command&#45;handlers/demande&#45;financement/index.js -->
<g id="edge16" class="edge">
<title>src/command&#45;handlers/index.js&#45;&gt;src/command&#45;handlers/demande&#45;financement/index.js</title>
<path fill="none" stroke="#757575" d="M2468.5968,-579.256C2406.3577,-568.0249 2320.2881,-552.4935 2253.4929,-540.4403"/>
<polygon fill="#757575" stroke="#757575" points="2253.827,-536.9441 2243.3644,-538.6125 2252.5839,-543.8328 2253.827,-536.9441"/>
</g>
<!-- src/interfaces/http/errors/HTTPRequestShouldHaveXRequestID.js -->
<g id="node13" class="node">
<title>src/interfaces/http/errors/HTTPRequestShouldHaveXRequestID.js</title>
<ellipse fill="none" stroke="#cfffac" cx="2693.3032" cy="-522" rx="286.464" ry="18"/>
<text text-anchor="middle" x="2693.3032" y="-518.8493" font-family="Arial" font-size="14.00" fill="#cfffac">src/interfaces/http/errors/HTTPRequestShouldHaveXRequestID.js</text>
</g>
<!-- src/interfaces/http/app.js&#45;&gt;src/interfaces/http/errors/HTTPRequestShouldHaveXRequestID.js -->
<g id="edge17" class="edge">
<title>src/interfaces/http/app.js&#45;&gt;src/interfaces/http/errors/HTTPRequestShouldHaveXRequestID.js</title>
<path fill="none" stroke="#757575" d="M3135.2958,-582.2717C3050.7682,-570.7452 2920.6725,-553.0049 2823.4779,-539.7511"/>
<polygon fill="#757575" stroke="#757575" points="2823.6673,-536.2446 2813.2861,-538.3613 2822.7215,-543.1804 2823.6673,-536.2446"/>
</g>
<!-- src/interfaces/http/middlewares/ensure&#45;logged&#45;in.js -->
<g id="node14" class="node">
<title>src/interfaces/http/middlewares/ensure&#45;logged&#45;in.js</title>
<ellipse fill="none" stroke="#cfffac" cx="3221.3032" cy="-522" rx="223.2957" ry="18"/>
<text text-anchor="middle" x="3221.3032" y="-518.8493" font-family="Arial" font-size="14.00" fill="#cfffac">src/interfaces/http/middlewares/ensure&#45;logged&#45;in.js</text>
</g>
<!-- src/interfaces/http/app.js&#45;&gt;src/interfaces/http/middlewares/ensure&#45;logged&#45;in.js -->
<g id="edge18" class="edge">
<title>src/interfaces/http/app.js&#45;&gt;src/interfaces/http/middlewares/ensure&#45;logged&#45;in.js</title>
<path fill="none" stroke="#757575" d="M3221.3032,-575.8314C3221.3032,-568.131 3221.3032,-558.9743 3221.3032,-550.4166"/>
<polygon fill="#757575" stroke="#757575" points="3224.8033,-550.4132 3221.3032,-540.4133 3217.8033,-550.4133 3224.8033,-550.4132"/>
</g>
<!-- src/modules/infrastructure/src/bus/command.js -->
<g id="node25" class="node">
<title>src/modules/infrastructure/src/bus/command.js</title>
<ellipse fill="none" stroke="#cfffac" cx="1277.3032" cy="-90" rx="205.6297" ry="18"/>
<text text-anchor="middle" x="1277.3032" y="-86.8493" font-family="Arial" font-size="14.00" fill="#cfffac">src/modules/infrastructure/src/bus/command.js</text>
</g>
<!-- src/modules/infrastructure/index.js&#45;&gt;src/modules/infrastructure/src/bus/command.js -->
<g id="edge41" class="edge">
<title>src/modules/infrastructure/index.js&#45;&gt;src/modules/infrastructure/src/bus/command.js</title>
<path fill="none" stroke="#757575" d="M2593.0784,-157.5009C2358.5826,-149.9918 1889.5536,-133.1994 1492.3032,-108 1472.5463,-106.7467 1451.7833,-105.2437 1431.2718,-103.6476"/>
<polygon fill="#757575" stroke="#757575" points="1431.472,-100.1526 1421.2282,-102.8572 1430.9227,-107.131 1431.472,-100.1526"/>
</g>
<!-- src/modules/infrastructure/src/bus/event.js -->
<g id="node26" class="node">
<title>src/modules/infrastructure/src/bus/event.js</title>
<ellipse fill="none" stroke="#cfffac" cx="1688.3032" cy="-90" rx="187.4887" ry="18"/>
<text text-anchor="middle" x="1688.3032" y="-86.8493" font-family="Arial" font-size="14.00" fill="#cfffac">src/modules/infrastructure/src/bus/event.js</text>
</g>
<!-- src/modules/infrastructure/index.js&#45;&gt;src/modules/infrastructure/src/bus/event.js -->
<g id="edge42" class="edge">
<title>src/modules/infrastructure/index.js&#45;&gt;src/modules/infrastructure/src/bus/event.js</title>
<path fill="none" stroke="#757575" d="M2602.6858,-154.4144C2432.9945,-144.9151 2137.9875,-127.5009 1885.3032,-108 1867.896,-106.6566 1849.6338,-105.1369 1831.5426,-103.564"/>
<polygon fill="#757575" stroke="#757575" points="1831.7834,-100.0718 1821.516,-102.6854 1831.1723,-107.045 1831.7834,-100.0718"/>
</g>
<!-- src/modules/infrastructure/src/event&#45;publisher.js -->
<g id="node27" class="node">
<title>src/modules/infrastructure/src/event&#45;publisher.js</title>
<ellipse fill="none" stroke="#cfffac" cx="2104.3032" cy="-90" rx="210.0801" ry="18"/>
<text text-anchor="middle" x="2104.3032" y="-86.8493" font-family="Arial" font-size="14.00" fill="#cfffac">src/modules/infrastructure/src/event&#45;publisher.js</text>
</g>
<!-- src/modules/infrastructure/index.js&#45;&gt;src/modules/infrastructure/src/event&#45;publisher.js -->
<g id="edge43" class="edge">
<title>src/modules/infrastructure/index.js&#45;&gt;src/modules/infrastructure/src/event&#45;publisher.js</title>
<path fill="none" stroke="#757575" d="M2631.5365,-149.4997C2523.2712,-137.2817 2358.1743,-118.65 2241.6206,-105.4966"/>
<polygon fill="#757575" stroke="#757575" points="2241.8853,-102.0044 2231.5558,-104.3608 2241.1002,-108.9602 2241.8853,-102.0044"/>
</g>
<!-- src/modules/infrastructure/src/event&#45;store.js -->
<g id="node28" class="node">
<title>src/modules/infrastructure/src/event&#45;store.js</title>
<ellipse fill="none" stroke="#c6c5fe" cx="2526.3032" cy="-90" rx="193.5396" ry="18"/>
<text text-anchor="middle" x="2526.3032" y="-86.8493" font-family="Arial" font-size="14.00" fill="#c6c5fe">src/modules/infrastructure/src/event&#45;store.js</text>
</g>
<!-- src/modules/infrastructure/index.js&#45;&gt;src/modules/infrastructure/src/event&#45;store.js -->
<g id="edge44" class="edge">
<title>src/modules/infrastructure/index.js&#45;&gt;src/modules/infrastructure/src/event&#45;store.js</title>
<path fill="none" stroke="#757575" d="M2691.1142,-144.937C2660.3623,-134.6864 2621.0197,-121.5722 2588.4862,-110.7277"/>
<polygon fill="#757575" stroke="#757575" points="2589.2189,-107.2826 2578.6252,-107.4407 2587.0053,-113.9234 2589.2189,-107.2826"/>
</g>
<!-- src/modules/infrastructure/src/hydrate&#45;processor.js -->
<g id="node29" class="node">
<title>src/modules/infrastructure/src/hydrate&#45;processor.js</title>
<ellipse fill="none" stroke="#cfffac" cx="2959.3032" cy="-90" rx="221.6028" ry="18"/>
<text text-anchor="middle" x="2959.3032" y="-86.8493" font-family="Arial" font-size="14.00" fill="#cfffac">src/modules/infrastructure/src/hydrate&#45;processor.js</text>
</g>
<!-- src/modules/infrastructure/index.js&#45;&gt;src/modules/infrastructure/src/hydrate&#45;processor.js -->
<g id="edge45" class="edge">
<title>src/modules/infrastructure/index.js&#45;&gt;src/modules/infrastructure/src/hydrate&#45;processor.js</title>
<path fill="none" stroke="#757575" d="M2793.7292,-144.937C2824.5099,-134.7241 2863.8577,-121.6685 2896.4716,-110.8474"/>
<polygon fill="#757575" stroke="#757575" points="2897.971,-114.0375 2906.36,-107.5664 2895.7666,-107.3937 2897.971,-114.0375"/>
</g>
<!-- src/modules/infrastructure/src/idGenerator.js -->
<g id="node30" class="node">
<title>src/modules/infrastructure/src/idGenerator.js</title>
<ellipse fill="none" stroke="#cfffac" cx="3394.3032" cy="-90" rx="195.7448" ry="18"/>
<text text-anchor="middle" x="3394.3032" y="-86.8493" font-family="Arial" font-size="14.00" fill="#cfffac">src/modules/infrastructure/src/idGenerator.js</text>
</g>
<!-- src/modules/infrastructure/index.js&#45;&gt;src/modules/infrastructure/src/idGenerator.js -->
<g id="edge46" class="edge">
<title>src/modules/infrastructure/index.js&#45;&gt;src/modules/infrastructure/src/idGenerator.js</title>
<path fill="none" stroke="#757575" d="M2854.386,-149.6228C2966.5595,-137.2355 3139.2319,-118.1674 3258.978,-104.9439"/>
<polygon fill="#757575" stroke="#757575" points="3259.3937,-108.4193 3268.9491,-103.8428 3258.6253,-101.4616 3259.3937,-108.4193"/>
</g>
<!-- src/modules/infrastructure/src/logger.js -->
<g id="node31" class="node">
<title>src/modules/infrastructure/src/logger.js</title>
<ellipse fill="none" stroke="#cfffac" cx="3780.3032" cy="-90" rx="172.1135" ry="18"/>
<text text-anchor="middle" x="3780.3032" y="-86.8493" font-family="Arial" font-size="14.00" fill="#cfffac">src/modules/infrastructure/src/logger.js</text>
</g>
<!-- src/modules/infrastructure/index.js&#45;&gt;src/modules/infrastructure/src/logger.js -->
<g id="edge47" class="edge">
<title>src/modules/infrastructure/index.js&#45;&gt;src/modules/infrastructure/src/logger.js</title>
<path fill="none" stroke="#757575" d="M2883.0727,-154.696C3052.9672,-145.519 3347.2562,-128.4668 3599.3032,-108 3615.0727,-106.7195 3631.6024,-105.2507 3647.9907,-103.7165"/>
<polygon fill="#757575" stroke="#757575" points="3648.5425,-107.18 3658.1685,-102.7539 3647.8833,-100.2111 3648.5425,-107.18"/>
</g>
<!-- src/modules/infrastructure/src/repository.js -->
<g id="node32" class="node">
<title>src/modules/infrastructure/src/repository.js</title>
<ellipse fill="none" stroke="#c6c5fe" cx="4157.3032" cy="-90" rx="187.1111" ry="18"/>
<text text-anchor="middle" x="4157.3032" y="-86.8493" font-family="Arial" font-size="14.00" fill="#c6c5fe">src/modules/infrastructure/src/repository.js</text>
</g>
<!-- src/modules/infrastructure/index.js&#45;&gt;src/modules/infrastructure/src/repository.js -->
<g id="edge48" class="edge">
<title>src/modules/infrastructure/index.js&#45;&gt;src/modules/infrastructure/src/repository.js</title>
<path fill="none" stroke="#757575" d="M2891.6156,-157.6616C3121.5536,-150.4664 3576.116,-134.2041 3961.3032,-108 3979.0658,-106.7916 3997.7167,-105.3295 4016.1587,-103.767"/>
<polygon fill="#757575" stroke="#757575" points="4016.712,-107.2325 4026.3758,-102.8896 4016.113,-100.2582 4016.712,-107.2325"/>
</g>
<!-- src/command&#45;handlers/ErrorValidation.js -->
<g id="node7" class="node">
<title>src/command&#45;handlers/ErrorValidation.js</title>
<ellipse fill="none" stroke="#cfffac" cx="1582.3032" cy="-378" rx="180.0297" ry="18"/>
<text text-anchor="middle" x="1582.3032" y="-374.8493" font-family="Arial" font-size="14.00" fill="#cfffac">src/command&#45;handlers/ErrorValidation.js</text>
</g>
<!-- src/command&#45;handlers/demande&#45;financement/add&#45;montant&#45;demande.js -->
<g id="node8" class="node">
<title>src/command&#45;handlers/demande&#45;financement/add&#45;montant&#45;demande.js</title>
<ellipse fill="none" stroke="#c6c5fe" cx="2151.3032" cy="-450" rx="310.2086" ry="18"/>
<text text-anchor="middle" x="2151.3032" y="-446.8493" font-family="Arial" font-size="14.00" fill="#c6c5fe">src/command&#45;handlers/demande&#45;financement/add&#45;montant&#45;demande.js</text>
</g>
<!-- src/command&#45;handlers/demande&#45;financement/add&#45;montant&#45;demande.js&#45;&gt;src/command&#45;handlers/ErrorValidation.js -->
<g id="edge6" class="edge">
<title>src/command&#45;handlers/demande&#45;financement/add&#45;montant&#45;demande.js&#45;&gt;src/command&#45;handlers/ErrorValidation.js</title>
<path fill="none" stroke="#757575" d="M2021.8325,-433.6171C1926.5918,-421.5655 1797.9816,-405.2915 1704.5008,-393.4626"/>
<polygon fill="#757575" stroke="#757575" points="1704.7857,-389.9708 1694.4254,-392.1877 1703.9069,-396.9155 1704.7857,-389.9708"/>
</g>
<!-- src/modules/domain/index.js -->
<g id="node9" class="node">
<title>src/modules/domain/index.js</title>
<ellipse fill="none" stroke="#c6c5fe" cx="2030.3032" cy="-378" rx="129.8012" ry="18"/>
<text text-anchor="middle" x="2030.3032" y="-374.8493" font-family="Arial" font-size="14.00" fill="#c6c5fe">src/modules/domain/index.js</text>
</g>
<!-- src/command&#45;handlers/demande&#45;financement/add&#45;montant&#45;demande.js&#45;&gt;src/modules/domain/index.js -->
<g id="edge7" class="edge">
<title>src/command&#45;handlers/demande&#45;financement/add&#45;montant&#45;demande.js&#45;&gt;src/modules/domain/index.js</title>
<path fill="none" stroke="#757575" d="M2121.0819,-432.0171C2105.3716,-422.6688 2085.9911,-411.1366 2069.1769,-401.1315"/>
<polygon fill="#757575" stroke="#757575" points="2070.5228,-397.8596 2060.1393,-395.7537 2066.9432,-403.8751 2070.5228,-397.8596"/>
</g>
<!-- src/modules/domain/src/demande&#45;financement&#45;id.js -->
<g id="node15" class="node">
<title>src/modules/domain/src/demande&#45;financement&#45;id.js</title>
<ellipse fill="none" stroke="#cfffac" cx="797.3032" cy="-234" rx="226.5712" ry="18"/>
<text text-anchor="middle" x="797.3032" y="-230.8493" font-family="Arial" font-size="14.00" fill="#cfffac">src/modules/domain/src/demande&#45;financement&#45;id.js</text>
</g>
<!-- src/modules/domain/index.js&#45;&gt;src/modules/domain/src/demande&#45;financement&#45;id.js -->
<g id="edge19" class="edge">
<title>src/modules/domain/index.js&#45;&gt;src/modules/domain/src/demande&#45;financement&#45;id.js</title>
<path fill="none" stroke="#757575" d="M1914.9276,-369.7251C1870.0951,-366.5769 1818.3082,-363.0226 1771.3032,-360 1500.7229,-342.6006 1430.3816,-364.6254 1162.3032,-324 1056.607,-307.9825 936.742,-275.6177 864.1092,-254.3818"/>
<polygon fill="#757575" stroke="#757575" points="864.7615,-250.9255 854.1803,-251.462 862.7866,-257.6411 864.7615,-250.9255"/>
</g>
<!-- src/modules/domain/src/demande&#45;financement.js -->
<g id="node16" class="node">
<title>src/modules/domain/src/demande&#45;financement.js</title>
<ellipse fill="none" stroke="#c6c5fe" cx="1387.3032" cy="-306" rx="216.1281" ry="18"/>
<text text-anchor="middle" x="1387.3032" y="-302.8493" font-family="Arial" font-size="14.00" fill="#c6c5fe">src/modules/domain/src/demande&#45;financement.js</text>
</g>
<!-- src/modules/domain/index.js&#45;&gt;src/modules/domain/src/demande&#45;financement.js -->
<g id="edge20" class="edge">
<title>src/modules/domain/index.js&#45;&gt;src/modules/domain/src/demande&#45;financement.js</title>
<path fill="none" stroke="#757575" d="M1929.1271,-366.6708C1820.6821,-354.5277 1647.7963,-335.1687 1526.5506,-321.5922"/>
<polygon fill="#757575" stroke="#757575" points="1526.7775,-318.0959 1516.4501,-320.4612 1525.9985,-325.0524 1526.7775,-318.0959"/>
</g>
<!-- src/modules/domain/src/event&#45;demande&#45;financement&#45;created.js -->
<g id="node17" class="node">
<title>src/modules/domain/src/event&#45;demande&#45;financement&#45;created.js</title>
<ellipse fill="none" stroke="#c6c5fe" cx="2329.3032" cy="-234" rx="276.6371" ry="18"/>
<text text-anchor="middle" x="2329.3032" y="-230.8493" font-family="Arial" font-size="14.00" fill="#c6c5fe">src/modules/domain/src/event&#45;demande&#45;financement&#45;created.js</text>
</g>
<!-- src/modules/domain/index.js&#45;&gt;src/modules/domain/src/event&#45;demande&#45;financement&#45;created.js -->
<g id="edge21" class="edge">
<title>src/modules/domain/index.js&#45;&gt;src/modules/domain/src/event&#45;demande&#45;financement&#45;created.js</title>
<path fill="none" stroke="#757575" d="M2066.3696,-360.6302C2120.6255,-334.5003 2223.2359,-285.0826 2282.9667,-256.3159"/>
<polygon fill="#757575" stroke="#757575" points="2284.6801,-259.3756 2292.171,-251.8831 2281.6427,-253.0689 2284.6801,-259.3756"/>
</g>
<!-- src/modules/domain/src/event&#45;demande&#45;financement&#45;deleted.js -->
<g id="node18" class="node">
<title>src/modules/domain/src/event&#45;demande&#45;financement&#45;deleted.js</title>
<ellipse fill="none" stroke="#c6c5fe" cx="276.3032" cy="-234" rx="276.1066" ry="18"/>
<text text-anchor="middle" x="276.3032" y="-230.8493" font-family="Arial" font-size="14.00" fill="#c6c5fe">src/modules/domain/src/event&#45;demande&#45;financement&#45;deleted.js</text>
</g>
<!-- src/modules/domain/index.js&#45;&gt;src/modules/domain/src/event&#45;demande&#45;financement&#45;deleted.js -->
<g id="edge22" class="edge">
<title>src/modules/domain/index.js&#45;&gt;src/modules/domain/src/event&#45;demande&#45;financement&#45;deleted.js</title>
<path fill="none" stroke="#757575" d="M1915.9116,-369.4687C1870.8611,-366.261 1818.6645,-362.7328 1771.3032,-360 1423.0708,-339.9069 1334.8287,-353.9259 987.3032,-324 778.3263,-306.0047 536.2603,-272.6822 395.3047,-252.0223"/>
<polygon fill="#757575" stroke="#757575" points="395.735,-248.548 385.3324,-250.557 394.7174,-255.4736 395.735,-248.548"/>
</g>
<!-- src/modules/domain/src/event&#45;montant&#45;demande&#45;added.js -->
<g id="node19" class="node">
<title>src/modules/domain/src/event&#45;montant&#45;demande&#45;added.js</title>
<ellipse fill="none" stroke="#c6c5fe" cx="1780.3032" cy="-234" rx="254.1131" ry="18"/>
<text text-anchor="middle" x="1780.3032" y="-230.8493" font-family="Arial" font-size="14.00" fill="#c6c5fe">src/modules/domain/src/event&#45;montant&#45;demande&#45;added.js</text>
</g>
<!-- src/modules/domain/index.js&#45;&gt;src/modules/domain/src/event&#45;montant&#45;demande&#45;added.js -->
<g id="edge23" class="edge">
<title>src/modules/domain/index.js&#45;&gt;src/modules/domain/src/event&#45;montant&#45;demande&#45;added.js</title>
<path fill="none" stroke="#757575" d="M1999.6483,-360.3428C1954.6007,-334.3954 1870.4701,-285.9361 1820.5151,-257.162"/>
<polygon fill="#757575" stroke="#757575" points="1822.0145,-253.9867 1811.6023,-252.0282 1818.5206,-260.0524 1822.0145,-253.9867"/>
</g>
<!-- src/modules/domain/src/user&#45;id.js -->
<g id="node20" class="node">
<title>src/modules/domain/src/user&#45;id.js</title>
<ellipse fill="none" stroke="#c6c5fe" cx="2775.3032" cy="-234" rx="151.2088" ry="18"/>
<text text-anchor="middle" x="2775.3032" y="-230.8493" font-family="Arial" font-size="14.00" fill="#c6c5fe">src/modules/domain/src/user&#45;id.js</text>
</g>
<!-- src/modules/domain/index.js&#45;&gt;src/modules/domain/src/user&#45;id.js -->
<g id="edge24" class="edge">
<title>src/modules/domain/index.js&#45;&gt;src/modules/domain/src/user&#45;id.js</title>
<path fill="none" stroke="#757575" d="M2106.1836,-363.3332C2244.7653,-336.5469 2538.1292,-279.843 2686.05,-251.2516"/>
<polygon fill="#757575" stroke="#757575" points="2686.8583,-254.6603 2696.0123,-249.326 2685.5298,-247.7875 2686.8583,-254.6603"/>
</g>
<!-- src/modules/domain/src/user.js -->
<g id="node21" class="node">
<title>src/modules/domain/src/user.js</title>
<ellipse fill="none" stroke="#c6c5fe" cx="2919.3032" cy="-306" rx="140.2259" ry="18"/>
<text text-anchor="middle" x="2919.3032" y="-302.8493" font-family="Arial" font-size="14.00" fill="#c6c5fe">src/modules/domain/src/user.js</text>
</g>
<!-- src/modules/domain/index.js&#45;&gt;src/modules/domain/src/user.js -->
<g id="edge25" class="edge">
<title>src/modules/domain/index.js&#45;&gt;src/modules/domain/src/user.js</title>
<path fill="none" stroke="#757575" d="M2142.4452,-368.9176C2307.8594,-355.5208 2616.4467,-330.5283 2790.7775,-316.4093"/>
<polygon fill="#757575" stroke="#757575" points="2791.0915,-319.8954 2800.7763,-315.5995 2790.5264,-312.9182 2791.0915,-319.8954"/>
</g>
<!-- src/command&#45;handlers/demande&#45;financement/create.js -->
<g id="node10" class="node">
<title>src/command&#45;handlers/demande&#45;financement/create.js</title>
<ellipse fill="none" stroke="#c6c5fe" cx="1082.3032" cy="-450" rx="241.4158" ry="18"/>
<text text-anchor="middle" x="1082.3032" y="-446.8493" font-family="Arial" font-size="14.00" fill="#c6c5fe">src/command&#45;handlers/demande&#45;financement/create.js</text>
</g>
<!-- src/command&#45;handlers/demande&#45;financement/create.js&#45;&gt;src/command&#45;handlers/ErrorValidation.js -->
<g id="edge8" class="edge">
<title>src/command&#45;handlers/demande&#45;financement/create.js&#45;&gt;src/command&#45;handlers/ErrorValidation.js</title>
<path fill="none" stroke="#757575" d="M1193.5799,-433.9762C1275.7061,-422.15 1387.0573,-406.1154 1469.5346,-394.2387"/>
<polygon fill="#757575" stroke="#757575" points="1470.0467,-397.7011 1479.4457,-392.8115 1469.049,-390.7726 1470.0467,-397.7011"/>
</g>
<!-- src/command&#45;handlers/demande&#45;financement/delete.js -->
<g id="node11" class="node">
<title>src/command&#45;handlers/demande&#45;financement/delete.js</title>
<ellipse fill="none" stroke="#c6c5fe" cx="1582.3032" cy="-450" rx="240.8851" ry="18"/>
<text text-anchor="middle" x="1582.3032" y="-446.8493" font-family="Arial" font-size="14.00" fill="#c6c5fe">src/command&#45;handlers/demande&#45;financement/delete.js</text>
</g>
<!-- src/command&#45;handlers/demande&#45;financement/delete.js&#45;&gt;src/command&#45;handlers/ErrorValidation.js -->
<g id="edge9" class="edge">
<title>src/command&#45;handlers/demande&#45;financement/delete.js&#45;&gt;src/command&#45;handlers/ErrorValidation.js</title>
<path fill="none" stroke="#757575" d="M1582.3032,-431.8314C1582.3032,-424.131 1582.3032,-414.9743 1582.3032,-406.4166"/>
<polygon fill="#757575" stroke="#757575" points="1585.8033,-406.4132 1582.3032,-396.4133 1578.8033,-406.4133 1585.8033,-406.4132"/>
</g>
<!-- src/command&#45;handlers/demande&#45;financement/delete.js&#45;&gt;src/modules/domain/index.js -->
<g id="edge10" class="edge">
<title>src/command&#45;handlers/demande&#45;financement/delete.js&#45;&gt;src/modules/domain/index.js</title>
<path fill="none" stroke="#757575" d="M1683.9613,-433.6621C1759.2868,-421.5562 1861.2374,-405.1713 1935.0045,-393.3159"/>
<polygon fill="#757575" stroke="#757575" points="1935.9027,-396.7165 1945.2206,-391.674 1934.7919,-389.8052 1935.9027,-396.7165"/>
</g>
<!-- src/command&#45;handlers/demande&#45;financement/index.js&#45;&gt;src/modules/infrastructure/index.js -->
<g id="edge15" class="edge">
<title>src/command&#45;handlers/demande&#45;financement/index.js&#45;&gt;src/modules/infrastructure/index.js</title>
<path fill="none" stroke="#757575" d="M2307.9823,-508.4215C2650.243,-478.2386 3434.3032,-406.0352 3434.3032,-378 3434.3032,-378 3434.3032,-378 3434.3032,-306 3434.3032,-262.4059 3430.7277,-241.4076 3395.3032,-216 3356.1226,-187.8984 3082.4205,-173.3338 2902.022,-166.7014"/>
<polygon fill="#757575" stroke="#757575" points="2902.0131,-163.1989 2891.8927,-166.3337 2901.7591,-170.1943 2902.0131,-163.1989"/>
</g>
<!-- src/command&#45;handlers/demande&#45;financement/index.js&#45;&gt;src/command&#45;handlers/demande&#45;financement/add&#45;montant&#45;demande.js -->
<g id="edge11" class="edge">
<title>src/command&#45;handlers/demande&#45;financement/index.js&#45;&gt;src/command&#45;handlers/demande&#45;financement/add&#45;montant&#45;demande.js</title>
<path fill="none" stroke="#757575" d="M2151.3032,-503.8314C2151.3032,-496.131 2151.3032,-486.9743 2151.3032,-478.4166"/>
<polygon fill="#757575" stroke="#757575" points="2154.8033,-478.4132 2151.3032,-468.4133 2147.8033,-478.4133 2154.8033,-478.4132"/>
</g>
<!-- src/command&#45;handlers/demande&#45;financement/index.js&#45;&gt;src/modules/domain/index.js -->
<g id="edge14" class="edge">
<title>src/command&#45;handlers/demande&#45;financement/index.js&#45;&gt;src/modules/domain/index.js</title>
<path fill="none" stroke="#757575" d="M2287.2982,-507.2002C2368.3891,-496.9688 2457.9548,-482.6144 2470.3032,-468 2480.6297,-455.7786 2480.9055,-443.983 2470.3032,-432 2449.9037,-408.9438 2283.1247,-393.614 2160.9115,-385.3589"/>
<polygon fill="#757575" stroke="#757575" points="2160.9249,-381.8522 2150.7143,-384.6795 2160.4595,-388.8367 2160.9249,-381.8522"/>
</g>
<!-- src/command&#45;handlers/demande&#45;financement/index.js&#45;&gt;src/command&#45;handlers/demande&#45;financement/create.js -->
<g id="edge12" class="edge">
<title>src/command&#45;handlers/demande&#45;financement/index.js&#45;&gt;src/command&#45;handlers/demande&#45;financement/create.js</title>
<path fill="none" stroke="#757575" d="M1969.9287,-510.3564C1803.954,-499.6264 1551.5828,-483.1229 1332.3032,-468 1310.5591,-466.5004 1287.7533,-464.8985 1265.1339,-463.2918"/>
<polygon fill="#757575" stroke="#757575" points="1265.3315,-459.7971 1255.1083,-462.5785 1264.8347,-466.7795 1265.3315,-459.7971"/>
</g>
<!-- src/command&#45;handlers/demande&#45;financement/index.js&#45;&gt;src/command&#45;handlers/demande&#45;financement/delete.js -->
<g id="edge13" class="edge">
<title>src/command&#45;handlers/demande&#45;financement/index.js&#45;&gt;src/command&#45;handlers/demande&#45;financement/delete.js</title>
<path fill="none" stroke="#757575" d="M2029.2384,-506.5542C1936.831,-494.8612 1810.0404,-478.8174 1715.1032,-466.8042"/>
<polygon fill="#757575" stroke="#757575" points="1715.5068,-463.3275 1705.1465,-465.5443 1714.628,-470.2721 1715.5068,-463.3275"/>
</g>
<!-- src/modules/domain/src/demande&#45;financement.js&#45;&gt;src/modules/infrastructure/index.js -->
<g id="edge32" class="edge">
<title>src/modules/domain/src/demande&#45;financement.js&#45;&gt;src/modules/infrastructure/index.js</title>
<path fill="none" stroke="#757575" d="M1422.1284,-288.0209C1439.8572,-278.2652 1461.39,-265.465 1479.3032,-252 1497.8998,-238.0213 1495.8863,-225.0856 1517.3032,-216 1541.5142,-205.7291 2258.6692,-179.125 2584.2438,-167.5339"/>
<polygon fill="#757575" stroke="#757575" points="2584.8407,-171.0149 2594.71,-167.1616 2584.5919,-164.0194 2584.8407,-171.0149"/>
</g>
<!-- src/modules/domain/src/demande&#45;financement.js&#45;&gt;src/modules/domain/src/demande&#45;financement&#45;id.js -->
<g id="edge28" class="edge">
<title>src/modules/domain/src/demande&#45;financement.js&#45;&gt;src/modules/domain/src/demande&#45;financement&#45;id.js</title>
<path fill="none" stroke="#757575" d="M1265.4127,-291.1252C1168.0337,-279.2417 1031.711,-262.6057 931.2833,-250.3501"/>
<polygon fill="#757575" stroke="#757575" points="931.4166,-246.8405 921.0662,-249.1033 930.5686,-253.7889 931.4166,-246.8405"/>
</g>
<!-- src/modules/domain/src/demande&#45;financement.js&#45;&gt;src/modules/domain/src/event&#45;demande&#45;financement&#45;created.js -->
<g id="edge29" class="edge">
<title>src/modules/domain/src/demande&#45;financement.js&#45;&gt;src/modules/domain/src/event&#45;demande&#45;financement&#45;created.js</title>
<path fill="none" stroke="#757575" d="M1546.5677,-293.8269C1710.3516,-281.3084 1965.4153,-261.8131 2139.5508,-248.5034"/>
<polygon fill="#757575" stroke="#757575" points="2139.8952,-251.9874 2149.5993,-247.7353 2139.3616,-245.0077 2139.8952,-251.9874"/>
</g>
<!-- src/modules/domain/src/demande&#45;financement.js&#45;&gt;src/modules/domain/src/event&#45;demande&#45;financement&#45;deleted.js -->
<g id="edge30" class="edge">
<title>src/modules/domain/src/demande&#45;financement.js&#45;&gt;src/modules/domain/src/event&#45;demande&#45;financement&#45;deleted.js</title>
<path fill="none" stroke="#757575" d="M1216.751,-294.9471C1019.1578,-282.1418 693.7268,-261.0518 482.2133,-247.3443"/>
<polygon fill="#757575" stroke="#757575" points="482.4337,-243.8513 472.2283,-246.6972 481.981,-250.8367 482.4337,-243.8513"/>
</g>
<!-- src/modules/domain/src/demande&#45;financement.js&#45;&gt;src/modules/domain/src/event&#45;montant&#45;demande&#45;added.js -->
<g id="edge31" class="edge">
<title>src/modules/domain/src/demande&#45;financement.js&#45;&gt;src/modules/domain/src/event&#45;montant&#45;demande&#45;added.js</title>
<path fill="none" stroke="#757575" d="M1476.9727,-289.572C1537.0761,-278.5607 1616.3376,-264.0395 1678.7644,-252.6025"/>
<polygon fill="#757575" stroke="#757575" points="1679.4279,-256.0393 1688.6335,-250.7945 1678.1664,-249.1539 1679.4279,-256.0393"/>
</g>
<!-- src/modules/domain/src/ErrorDomainValidation.js -->
<g id="node22" class="node">
<title>src/modules/domain/src/ErrorDomainValidation.js</title>
<ellipse fill="none" stroke="#cfffac" cx="1910.3032" cy="-162" rx="216.2906" ry="18"/>
<text text-anchor="middle" x="1910.3032" y="-158.8493" font-family="Arial" font-size="14.00" fill="#cfffac">src/modules/domain/src/ErrorDomainValidation.js</text>
</g>
<!-- src/modules/domain/src/demande&#45;financement.js&#45;&gt;src/modules/domain/src/ErrorDomainValidation.js -->
<g id="edge26" class="edge">
<title>src/modules/domain/src/demande&#45;financement.js&#45;&gt;src/modules/domain/src/ErrorDomainValidation.js</title>
<path fill="none" stroke="#757575" d="M1256.5543,-291.624C1175.2025,-281.3271 1083.7293,-266.7297 1071.3032,-252 1060.9863,-239.7705 1060.3589,-227.6714 1071.3032,-216 1092.5034,-193.3914 1454.995,-177.0102 1696.5053,-168.5468"/>
<polygon fill="#757575" stroke="#757575" points="1696.9638,-172.033 1706.8359,-168.187 1696.7201,-165.0372 1696.9638,-172.033"/>
</g>
<!-- src/modules/domain/src/ErrorPermissions.js -->
<g id="node23" class="node">
<title>src/modules/domain/src/ErrorPermissions.js</title>
<ellipse fill="none" stroke="#cfffac" cx="1275.3032" cy="-234" rx="194.61" ry="18"/>
<text text-anchor="middle" x="1275.3032" y="-230.8493" font-family="Arial" font-size="14.00" fill="#cfffac">src/modules/domain/src/ErrorPermissions.js</text>
</g>
<!-- src/modules/domain/src/demande&#45;financement.js&#45;&gt;src/modules/domain/src/ErrorPermissions.js -->
<g id="edge27" class="edge">
<title>src/modules/domain/src/demande&#45;financement.js&#45;&gt;src/modules/domain/src/ErrorPermissions.js</title>
<path fill="none" stroke="#757575" d="M1359.3298,-288.0171C1345.031,-278.825 1327.4475,-267.5213 1312.0676,-257.6342"/>
<polygon fill="#757575" stroke="#757575" points="1313.6127,-254.4667 1303.3082,-252.0032 1309.8273,-260.3549 1313.6127,-254.4667"/>
</g>
<!-- src/modules/domain/src/event&#45;demande&#45;financement&#45;created.js&#45;&gt;src/modules/infrastructure/index.js -->
<g id="edge33" class="edge">
<title>src/modules/domain/src/event&#45;demande&#45;financement&#45;created.js&#45;&gt;src/modules/infrastructure/index.js</title>
<path fill="none" stroke="#757575" d="M2426.1334,-217.1192C2492.4657,-205.5552 2580.0666,-190.2834 2646.2351,-178.7479"/>
<polygon fill="#757575" stroke="#757575" points="2646.9999,-182.1675 2656.2502,-177.002 2645.7976,-175.2715 2646.9999,-182.1675"/>
</g>
<!-- src/modules/domain/src/event&#45;demande&#45;financement&#45;deleted.js&#45;&gt;src/modules/infrastructure/index.js -->
<g id="edge34" class="edge">
<title>src/modules/domain/src/event&#45;demande&#45;financement&#45;deleted.js&#45;&gt;src/modules/infrastructure/index.js</title>
<path fill="none" stroke="#757575" d="M466.3424,-220.9309C498.042,-219.0571 530.5934,-217.3204 561.3032,-216 1260.3958,-185.9409 1435.8059,-198.3706 2135.3032,-180 2287.4026,-176.0055 2460.9199,-170.7942 2583.3689,-167.0076"/>
<polygon fill="#757575" stroke="#757575" points="2583.6863,-170.4995 2593.5732,-166.6917 2583.4697,-163.5029 2583.6863,-170.4995"/>
</g>
<!-- src/modules/domain/src/event&#45;montant&#45;demande&#45;added.js&#45;&gt;src/modules/infrastructure/index.js -->
<g id="edge35" class="edge">
<title>src/modules/domain/src/event&#45;montant&#45;demande&#45;added.js&#45;&gt;src/modules/infrastructure/index.js</title>
<path fill="none" stroke="#757575" d="M1955.0719,-220.9196C2140.9625,-207.0068 2431.3134,-185.2757 2602.5905,-172.4567"/>
<polygon fill="#757575" stroke="#757575" points="2602.9718,-175.938 2612.6827,-171.7013 2602.4493,-168.9575 2602.9718,-175.938"/>
</g>
<!-- src/modules/domain/src/user&#45;id.js&#45;&gt;src/modules/domain/src/ErrorDomainValidation.js -->
<g id="edge37" class="edge">
<title>src/modules/domain/src/user&#45;id.js&#45;&gt;src/modules/domain/src/ErrorDomainValidation.js</title>
<path fill="none" stroke="#757575" d="M2667.3449,-221.325C2649.9545,-219.4359 2632.1397,-217.5913 2615.3032,-216 2436.7327,-199.1219 2232.332,-183.9187 2089.7627,-173.977"/>
<polygon fill="#757575" stroke="#757575" points="2089.8246,-170.4729 2079.6058,-173.2703 2089.3387,-177.4561 2089.8246,-170.4729"/>
</g>
<!-- src/modules/domain/src/user.js&#45;&gt;src/modules/infrastructure/index.js -->
<g id="edge40" class="edge">
<title>src/modules/domain/src/user.js&#45;&gt;src/modules/infrastructure/index.js</title>
<path fill="none" stroke="#757575" d="M3049.6074,-299.3616C3177.2511,-291.4915 3355.7087,-276.2901 3377.3032,-252 3387.9339,-240.0422 3388.127,-227.7833 3377.3032,-216 3345.8925,-181.8047 3082.639,-169.2362 2905.1002,-164.6351"/>
<polygon fill="#757575" stroke="#757575" points="2904.9452,-161.1302 2894.8599,-164.3761 2904.7681,-168.1279 2904.9452,-161.1302"/>
</g>
<!-- src/modules/domain/src/user.js&#45;&gt;src/modules/domain/src/user&#45;id.js -->
<g id="edge39" class="edge">
<title>src/modules/domain/src/user.js&#45;&gt;src/modules/domain/src/user&#45;id.js</title>
<path fill="none" stroke="#757575" d="M2884.0769,-288.3868C2864.7259,-278.7113 2840.5305,-266.6136 2819.8757,-256.2863"/>
<polygon fill="#757575" stroke="#757575" points="2821.1745,-253.0226 2810.665,-251.6809 2818.044,-259.2836 2821.1745,-253.0226"/>
</g>
<!-- src/modules/domain/src/event&#45;user&#45;registered.js -->
<g id="node24" class="node">
<title>src/modules/domain/src/event&#45;user&#45;registered.js</title>
<ellipse fill="none" stroke="#c6c5fe" cx="3156.3032" cy="-234" rx="211.7178" ry="18"/>
<text text-anchor="middle" x="3156.3032" y="-230.8493" font-family="Arial" font-size="14.00" fill="#c6c5fe">src/modules/domain/src/event&#45;user&#45;registered.js</text>
</g>
<!-- src/modules/domain/src/user.js&#45;&gt;src/modules/domain/src/event&#45;user&#45;registered.js -->
<g id="edge38" class="edge">
<title>src/modules/domain/src/user.js&#45;&gt;src/modules/domain/src/event&#45;user&#45;registered.js</title>
<path fill="none" stroke="#757575" d="M2973.9734,-289.3913C3008.3573,-278.9456 3052.9608,-265.3952 3089.445,-254.3113"/>
<polygon fill="#757575" stroke="#757575" points="3090.4675,-257.6587 3099.0183,-251.403 3088.4327,-250.961 3090.4675,-257.6587"/>
</g>
<!-- src/modules/domain/src/event&#45;user&#45;registered.js&#45;&gt;src/modules/infrastructure/index.js -->
<g id="edge36" class="edge">
<title>src/modules/domain/src/event&#45;user&#45;registered.js&#45;&gt;src/modules/infrastructure/index.js</title>
<path fill="none" stroke="#757575" d="M3063.1355,-217.7969C2996.2293,-206.161 2906.2966,-190.5206 2838.6714,-178.7597"/>
<polygon fill="#757575" stroke="#757575" points="2838.8911,-175.2454 2828.4393,-176.9802 2837.6917,-182.1419 2838.8911,-175.2454"/>
</g>
<!-- src/modules/infrastructure/src/EventShouldBeNamed.js -->
<g id="node34" class="node">
<title>src/modules/infrastructure/src/EventShouldBeNamed.js</title>
<ellipse fill="none" stroke="#cfffac" cx="3069.3032" cy="-18" rx="241.9372" ry="18"/>
<text text-anchor="middle" x="3069.3032" y="-14.8493" font-family="Arial" font-size="14.00" fill="#cfffac">src/modules/infrastructure/src/EventShouldBeNamed.js</text>
</g>
<!-- src/modules/infrastructure/src/event&#45;store.js&#45;&gt;src/modules/infrastructure/src/EventShouldBeNamed.js -->
<g id="edge49" class="edge">
<title>src/modules/infrastructure/src/event&#45;store.js&#45;&gt;src/modules/infrastructure/src/EventShouldBeNamed.js</title>
<path fill="none" stroke="#757575" d="M2637.4977,-75.256C2725.5121,-63.5856 2848.544,-47.2719 2940.7758,-35.0423"/>
<polygon fill="#757575" stroke="#757575" points="2941.2788,-38.5063 2950.732,-33.7222 2940.3587,-31.5671 2941.2788,-38.5063"/>
</g>
<!-- src/modules/infrastructure/src/EventShouldContainsAggregateId.js -->
<g id="node35" class="node">
<title>src/modules/infrastructure/src/EventShouldContainsAggregateId.js</title>
<ellipse fill="none" stroke="#cfffac" cx="3617.3032" cy="-18" rx="288.1967" ry="18"/>
<text text-anchor="middle" x="3617.3032" y="-14.8493" font-family="Arial" font-size="14.00" fill="#cfffac">src/modules/infrastructure/src/EventShouldContainsAggregateId.js</text>
</g>
<!-- src/modules/infrastructure/src/event&#45;store.js&#45;&gt;src/modules/infrastructure/src/EventShouldContainsAggregateId.js -->
<g id="edge50" class="edge">
<title>src/modules/infrastructure/src/event&#45;store.js&#45;&gt;src/modules/infrastructure/src/EventShouldContainsAggregateId.js</title>
<path fill="none" stroke="#757575" d="M2663.4427,-77.2545C2685.1354,-75.39 2707.325,-73.5715 2728.3032,-72 2732.4793,-71.6872 3138.5567,-47.042 3400.3784,-31.158"/>
<polygon fill="#757575" stroke="#757575" points="3400.636,-34.6489 3410.4057,-30.5497 3400.212,-27.6618 3400.636,-34.6489"/>
</g>
<!-- src/modules/infrastructure/src/EventShouldContainsAuthor.js -->
<g id="node36" class="node">
<title>src/modules/infrastructure/src/EventShouldContainsAuthor.js</title>
<ellipse fill="none" stroke="#cfffac" cx="1453.3032" cy="-18" rx="264.4981" ry="18"/>
<text text-anchor="middle" x="1453.3032" y="-14.8493" font-family="Arial" font-size="14.00" fill="#cfffac">src/modules/infrastructure/src/EventShouldContainsAuthor.js</text>
</g>
<!-- src/modules/infrastructure/src/event&#45;store.js&#45;&gt;src/modules/infrastructure/src/EventShouldContainsAuthor.js -->
<g id="edge51" class="edge">
<title>src/modules/infrastructure/src/event&#45;store.js&#45;&gt;src/modules/infrastructure/src/EventShouldContainsAuthor.js</title>
<path fill="none" stroke="#757575" d="M2389.0318,-77.2987C2367.0578,-75.4181 2344.5616,-73.5831 2323.3032,-72 2058.2219,-52.2592 1991.5906,-52.7442 1726.3032,-36 1702.4506,-34.4945 1677.4277,-32.8854 1652.6162,-31.2716"/>
<polygon fill="#757575" stroke="#757575" points="1652.5829,-27.7621 1642.3765,-30.6046 1652.1278,-34.7473 1652.5829,-27.7621"/>
</g>
<!-- src/modules/infrastructure/src/EventShouldContainsId.js -->
<g id="node37" class="node">
<title>src/modules/infrastructure/src/EventShouldContainsId.js</title>
<ellipse fill="none" stroke="#cfffac" cx="1980.3032" cy="-18" rx="244.731" ry="18"/>
<text text-anchor="middle" x="1980.3032" y="-14.8493" font-family="Arial" font-size="14.00" fill="#cfffac">src/modules/infrastructure/src/EventShouldContainsId.js</text>
</g>
<!-- src/modules/infrastructure/src/event&#45;store.js&#45;&gt;src/modules/infrastructure/src/EventShouldContainsId.js -->
<g id="edge52" class="edge">
<title>src/modules/infrastructure/src/event&#45;store.js&#45;&gt;src/modules/infrastructure/src/EventShouldContainsId.js</title>
<path fill="none" stroke="#757575" d="M2414.4944,-75.256C2326.1443,-63.6054 2202.7027,-47.3274 2110.0141,-35.1047"/>
<polygon fill="#757575" stroke="#757575" points="2110.3796,-31.6227 2100.0079,-33.7852 2109.4644,-38.5626 2110.3796,-31.6227"/>
</g>
<!-- src/modules/infrastructure/src/EventShouldContainsTimestamp.js -->
<g id="node38" class="node">
<title>src/modules/infrastructure/src/EventShouldContainsTimestamp.js</title>
<ellipse fill="none" stroke="#cfffac" cx="2526.3032" cy="-18" rx="283.0105" ry="18"/>
<text text-anchor="middle" x="2526.3032" y="-14.8493" font-family="Arial" font-size="14.00" fill="#cfffac">src/modules/infrastructure/src/EventShouldContainsTimestamp.js</text>
</g>
<!-- src/modules/infrastructure/src/event&#45;store.js&#45;&gt;src/modules/infrastructure/src/EventShouldContainsTimestamp.js -->
<g id="edge53" class="edge">
<title>src/modules/infrastructure/src/event&#45;store.js&#45;&gt;src/modules/infrastructure/src/EventShouldContainsTimestamp.js</title>
<path fill="none" stroke="#757575" d="M2526.3032,-71.8314C2526.3032,-64.131 2526.3032,-54.9743 2526.3032,-46.4166"/>
<polygon fill="#757575" stroke="#757575" points="2529.8033,-46.4132 2526.3032,-36.4133 2522.8033,-46.4133 2529.8033,-46.4132"/>
</g>
<!-- src/modules/infrastructure/src/AggregateNotFound.js -->
<g id="node33" class="node">
<title>src/modules/infrastructure/src/AggregateNotFound.js</title>
<ellipse fill="none" stroke="#cfffac" cx="4157.3032" cy="-18" rx="231.4941" ry="18"/>
<text text-anchor="middle" x="4157.3032" y="-14.8493" font-family="Arial" font-size="14.00" fill="#cfffac">src/modules/infrastructure/src/AggregateNotFound.js</text>
</g>
<!-- src/modules/infrastructure/src/repository.js&#45;&gt;src/modules/infrastructure/src/AggregateNotFound.js -->
<g id="edge54" class="edge">
<title>src/modules/infrastructure/src/repository.js&#45;&gt;src/modules/infrastructure/src/AggregateNotFound.js</title>
<path fill="none" stroke="#757575" d="M4157.3032,-71.8314C4157.3032,-64.131 4157.3032,-54.9743 4157.3032,-46.4166"/>
<polygon fill="#757575" stroke="#757575" points="4160.8033,-46.4132 4157.3032,-36.4133 4153.8033,-46.4133 4160.8033,-46.4132"/>
</g>
</g>
</svg>
