<?xml version="1.0" encoding="UTF-8" standalone="no"?>
<!DOCTYPE svg PUBLIC "-//W3C//DTD SVG 1.1//EN"
 "http://www.w3.org/Graphics/SVG/1.1/DTD/svg11.dtd">
<!-- Generated by graphviz version 2.40.1 (20161225.0304)
 -->
<!-- Title: G Pages: 1 -->
<svg width="5883pt" height="412pt"
 viewBox="0.00 0.00 5883.34 411.98" xmlns="http://www.w3.org/2000/svg" xmlns:xlink="http://www.w3.org/1999/xlink">
<g id="graph0" class="graph" transform="scale(1 1) rotate(0) translate(7.992 403.992)">
<title>G</title>
<polygon fill="#000000" stroke="transparent" points="-7.992,7.992 -7.992,-403.992 5875.3469,-403.992 5875.3469,7.992 -7.992,7.992"/>
<!-- server.js -->
<g id="node1" class="node">
<title>server.js</title>
<ellipse fill="none" stroke="#c6c5fe" cx="3471.9476" cy="-378" rx="45.7011" ry="18"/>
<text text-anchor="middle" x="3471.9476" y="-374.8493" font-family="Arial" font-size="14.00" fill="#c6c5fe">server.js</text>
</g>
<!-- src/command/core/command&#45;handlers/index.js -->
<g id="node2" class="node">
<title>src/command/core/command&#45;handlers/index.js</title>
<ellipse fill="none" stroke="#c6c5fe" cx="2472.9476" cy="-306" rx="206.2064" ry="18"/>
<text text-anchor="middle" x="2472.9476" y="-302.8493" font-family="Arial" font-size="14.00" fill="#c6c5fe">src/command/core/command&#45;handlers/index.js</text>
</g>
<!-- server.js&#45;&gt;src/command/core/command&#45;handlers/index.js -->
<g id="edge1" class="edge">
<title>server.js&#45;&gt;src/command/core/command&#45;handlers/index.js</title>
<path fill="none" stroke="#757575" d="M3426.7549,-374.7429C3290.3347,-364.9108 2877.6352,-335.1667 2642.2247,-318.2002"/>
<polygon fill="#757575" stroke="#757575" points="2642.4176,-314.7051 2632.1918,-317.4771 2641.9143,-321.687 2642.4176,-314.7051"/>
</g>
<!-- src/command/core/infrastructure/logger.js -->
<g id="node3" class="node">
<title>src/command/core/infrastructure/logger.js</title>
<ellipse fill="none" stroke="#cfffac" cx="3098.9476" cy="-306" rx="183.6638" ry="18"/>
<text text-anchor="middle" x="3098.9476" y="-302.8493" font-family="Arial" font-size="14.00" fill="#cfffac">src/command/core/infrastructure/logger.js</text>
</g>
<!-- server.js&#45;&gt;src/command/core/infrastructure/logger.js -->
<g id="edge2" class="edge">
<title>server.js&#45;&gt;src/command/core/infrastructure/logger.js</title>
<path fill="none" stroke="#757575" d="M3430.605,-370.0196C3373.5145,-358.9995 3268.9314,-338.8119 3192.4237,-324.0436"/>
<polygon fill="#757575" stroke="#757575" points="3192.7773,-320.5474 3182.2952,-322.0885 3191.4505,-327.4205 3192.7773,-320.5474"/>
</g>
<!-- src/command/core/messaging/index.js -->
<g id="node4" class="node">
<title>src/command/core/messaging/index.js</title>
<ellipse fill="none" stroke="#cfffac" cx="3471.9476" cy="-306" rx="171.0339" ry="18"/>
<text text-anchor="middle" x="3471.9476" y="-302.8493" font-family="Arial" font-size="14.00" fill="#cfffac">src/command/core/messaging/index.js</text>
</g>
<!-- server.js&#45;&gt;src/command/core/messaging/index.js -->
<g id="edge3" class="edge">
<title>server.js&#45;&gt;src/command/core/messaging/index.js</title>
<path fill="none" stroke="#757575" d="M3471.9476,-359.8314C3471.9476,-352.131 3471.9476,-342.9743 3471.9476,-334.4166"/>
<polygon fill="#757575" stroke="#757575" points="3475.4477,-334.4132 3471.9476,-324.4133 3468.4477,-334.4133 3475.4477,-334.4132"/>
</g>
<!-- src/command/write&#45;api/app.js -->
<g id="node5" class="node">
<title>src/command/write&#45;api/app.js</title>
<ellipse fill="none" stroke="#c6c5fe" cx="3793.9476" cy="-306" rx="133.1075" ry="18"/>
<text text-anchor="middle" x="3793.9476" y="-302.8493" font-family="Arial" font-size="14.00" fill="#c6c5fe">src/command/write&#45;api/app.js</text>
</g>
<!-- server.js&#45;&gt;src/command/write&#45;api/app.js -->
<g id="edge4" class="edge">
<title>server.js&#45;&gt;src/command/write&#45;api/app.js</title>
<path fill="none" stroke="#757575" d="M3512.0781,-369.0267C3562.567,-357.7373 3650.4282,-338.0913 3714.6683,-323.7271"/>
<polygon fill="#757575" stroke="#757575" points="3715.7711,-327.067 3724.7663,-321.4691 3714.2435,-320.2357 3715.7711,-327.067"/>
</g>
<!-- src/infrastructure/event&#45;publisher.js -->
<g id="node6" class="node">
<title>src/infrastructure/event&#45;publisher.js</title>
<ellipse fill="none" stroke="#cfffac" cx="4101.9476" cy="-306" rx="156.757" ry="18"/>
<text text-anchor="middle" x="4101.9476" y="-302.8493" font-family="Arial" font-size="14.00" fill="#cfffac">src/infrastructure/event&#45;publisher.js</text>
</g>
<!-- server.js&#45;&gt;src/infrastructure/event&#45;publisher.js -->
<g id="edge5" class="edge">
<title>server.js&#45;&gt;src/infrastructure/event&#45;publisher.js</title>
<path fill="none" stroke="#757575" d="M3515.9976,-372.9657C3611.1418,-362.0921 3838.6958,-336.0859 3980.5925,-319.8692"/>
<polygon fill="#757575" stroke="#757575" points="3981.1201,-323.3317 3990.658,-318.7188 3980.3253,-316.377 3981.1201,-323.3317"/>
</g>
<!-- src/infrastructure/event&#45;store.js -->
<g id="node7" class="node">
<title>src/infrastructure/event&#45;store.js</title>
<ellipse fill="none" stroke="#c6c5fe" cx="4825.9476" cy="-306" rx="140.2167" ry="18"/>
<text text-anchor="middle" x="4825.9476" y="-302.8493" font-family="Arial" font-size="14.00" fill="#c6c5fe">src/infrastructure/event&#45;store.js</text>
</g>
<!-- server.js&#45;&gt;src/infrastructure/event&#45;store.js -->
<g id="edge6" class="edge">
<title>server.js&#45;&gt;src/infrastructure/event&#45;store.js</title>
<path fill="none" stroke="#757575" d="M3517.3848,-375.5838C3700.391,-365.8523 4387.9206,-329.2924 4686.3134,-313.4252"/>
<polygon fill="#757575" stroke="#757575" points="4686.529,-316.9187 4696.329,-312.8926 4686.1572,-309.9286 4686.529,-316.9187"/>
</g>
<!-- src/query/read&#45;api/app.js -->
<g id="node8" class="node">
<title>src/query/read&#45;api/app.js</title>
<ellipse fill="none" stroke="#c6c5fe" cx="2886.9476" cy="-234" rx="114.4353" ry="18"/>
<text text-anchor="middle" x="2886.9476" y="-230.8493" font-family="Arial" font-size="14.00" fill="#c6c5fe">src/query/read&#45;api/app.js</text>
</g>
<!-- server.js&#45;&gt;src/query/read&#45;api/app.js -->
<g id="edge7" class="edge">
<title>server.js&#45;&gt;src/query/read&#45;api/app.js</title>
<path fill="none" stroke="#757575" d="M3426.0684,-376.6962C3298.1679,-372.6402 2944.4636,-358.3944 2905.9476,-324 2888.9851,-308.8526 2885.0148,-282.7077 2884.8312,-262.4878"/>
<polygon fill="#757575" stroke="#757575" points="2888.3352,-262.3294 2885.0457,-252.2582 2881.3367,-262.1826 2888.3352,-262.3294"/>
</g>
<!-- src/command/core/command&#45;handlers/demande&#45;financement/index.js -->
<g id="node14" class="node">
<title>src/command/core/command&#45;handlers/demande&#45;financement/index.js</title>
<ellipse fill="none" stroke="#c6c5fe" cx="1709.9476" cy="-234" rx="302.4643" ry="18"/>
<text text-anchor="middle" x="1709.9476" y="-230.8493" font-family="Arial" font-size="14.00" fill="#c6c5fe">src/command/core/command&#45;handlers/demande&#45;financement/index.js</text>
</g>
<!-- src/command/core/command&#45;handlers/index.js&#45;&gt;src/command/core/command&#45;handlers/demande&#45;financement/index.js -->
<g id="edge18" class="edge">
<title>src/command/core/command&#45;handlers/index.js&#45;&gt;src/command/core/command&#45;handlers/demande&#45;financement/index.js</title>
<path fill="none" stroke="#757575" d="M2332.5573,-292.7522C2205.4329,-280.7561 2017.7844,-263.0488 1881.746,-250.2116"/>
<polygon fill="#757575" stroke="#757575" points="1881.9162,-246.7122 1871.6316,-249.2572 1881.2585,-253.6813 1881.9162,-246.7122"/>
</g>
<!-- src/command/write&#45;api/errors/HTTPRequestShouldHaveXRequestID.js -->
<g id="node18" class="node">
<title>src/command/write&#45;api/errors/HTTPRequestShouldHaveXRequestID.js</title>
<ellipse fill="none" stroke="#cfffac" cx="3325.9476" cy="-234" rx="306.7828" ry="18"/>
<text text-anchor="middle" x="3325.9476" y="-230.8493" font-family="Arial" font-size="14.00" fill="#cfffac">src/command/write&#45;api/errors/HTTPRequestShouldHaveXRequestID.js</text>
</g>
<!-- src/command/write&#45;api/app.js&#45;&gt;src/command/write&#45;api/errors/HTTPRequestShouldHaveXRequestID.js -->
<g id="edge20" class="edge">
<title>src/command/write&#45;api/app.js&#45;&gt;src/command/write&#45;api/errors/HTTPRequestShouldHaveXRequestID.js</title>
<path fill="none" stroke="#757575" d="M3705.9204,-292.4574C3632.4102,-281.1481 3526.8996,-264.9157 3445.7059,-252.4244"/>
<polygon fill="#757575" stroke="#757575" points="3445.8418,-248.9042 3435.4259,-250.8428 3444.7773,-255.8228 3445.8418,-248.9042"/>
</g>
<!-- src/command/write&#45;api/middlewares/ensure&#45;logged&#45;in.js -->
<g id="node19" class="node">
<title>src/command/write&#45;api/middlewares/ensure&#45;logged&#45;in.js</title>
<ellipse fill="none" stroke="#cfffac" cx="3893.9476" cy="-234" rx="243.6147" ry="18"/>
<text text-anchor="middle" x="3893.9476" y="-230.8493" font-family="Arial" font-size="14.00" fill="#cfffac">src/command/write&#45;api/middlewares/ensure&#45;logged&#45;in.js</text>
</g>
<!-- src/command/write&#45;api/app.js&#45;&gt;src/command/write&#45;api/middlewares/ensure&#45;logged&#45;in.js -->
<g id="edge21" class="edge">
<title>src/command/write&#45;api/app.js&#45;&gt;src/command/write&#45;api/middlewares/ensure&#45;logged&#45;in.js</title>
<path fill="none" stroke="#757575" d="M3818.6667,-288.2022C3831.3115,-279.098 3846.8836,-267.8861 3860.5775,-258.0265"/>
<polygon fill="#757575" stroke="#757575" points="3862.748,-260.7766 3868.8183,-252.0931 3858.6579,-255.0958 3862.748,-260.7766"/>
</g>
<!-- src/infrastructure/EventShouldContainsAggregateId.js -->
<g id="node27" class="node">
<title>src/infrastructure/EventShouldContainsAggregateId.js</title>
<ellipse fill="none" stroke="#cfffac" cx="4380.9476" cy="-234" rx="225.5008" ry="18"/>
<text text-anchor="middle" x="4380.9476" y="-230.8493" font-family="Arial" font-size="14.00" fill="#cfffac">src/infrastructure/EventShouldContainsAggregateId.js</text>
</g>
<!-- src/infrastructure/event&#45;store.js&#45;&gt;src/infrastructure/EventShouldContainsAggregateId.js -->
<g id="edge33" class="edge">
<title>src/infrastructure/event&#45;store.js&#45;&gt;src/infrastructure/EventShouldContainsAggregateId.js</title>
<path fill="none" stroke="#757575" d="M4738.5609,-291.861C4667.7055,-280.3968 4567.4293,-264.1723 4491.0839,-251.8198"/>
<polygon fill="#757575" stroke="#757575" points="4491.3809,-248.3224 4480.9502,-250.1802 4490.2628,-255.2326 4491.3809,-248.3224"/>
</g>
<!-- src/infrastructure/EventShouldContainsAuthor.js -->
<g id="node28" class="node">
<title>src/infrastructure/EventShouldContainsAuthor.js</title>
<ellipse fill="none" stroke="#cfffac" cx="4825.9476" cy="-234" rx="201.3022" ry="18"/>
<text text-anchor="middle" x="4825.9476" y="-230.8493" font-family="Arial" font-size="14.00" fill="#cfffac">src/infrastructure/EventShouldContainsAuthor.js</text>
</g>
<!-- src/infrastructure/event&#45;store.js&#45;&gt;src/infrastructure/EventShouldContainsAuthor.js -->
<g id="edge34" class="edge">
<title>src/infrastructure/event&#45;store.js&#45;&gt;src/infrastructure/EventShouldContainsAuthor.js</title>
<path fill="none" stroke="#757575" d="M4825.9476,-287.8314C4825.9476,-280.131 4825.9476,-270.9743 4825.9476,-262.4166"/>
<polygon fill="#757575" stroke="#757575" points="4829.4477,-262.4132 4825.9476,-252.4133 4822.4477,-262.4133 4829.4477,-262.4132"/>
</g>
<!-- src/infrastructure/EventShouldContainsId.js -->
<g id="node29" class="node">
<title>src/infrastructure/EventShouldContainsId.js</title>
<ellipse fill="none" stroke="#cfffac" cx="5226.9476" cy="-234" rx="182.0352" ry="18"/>
<text text-anchor="middle" x="5226.9476" y="-230.8493" font-family="Arial" font-size="14.00" fill="#cfffac">src/infrastructure/EventShouldContainsId.js</text>
</g>
<!-- src/infrastructure/event&#45;store.js&#45;&gt;src/infrastructure/EventShouldContainsId.js -->
<g id="edge35" class="edge">
<title>src/infrastructure/event&#45;store.js&#45;&gt;src/infrastructure/EventShouldContainsId.js</title>
<path fill="none" stroke="#757575" d="M4907.5793,-291.3429C4971.6394,-279.8409 5061.0367,-263.7895 5128.9608,-251.5936"/>
<polygon fill="#757575" stroke="#757575" points="5129.597,-255.0355 5138.821,-249.8232 5128.3598,-248.1457 5129.597,-255.0355"/>
</g>
<!-- src/infrastructure/EventShouldContainsTimestamp.js -->
<g id="node30" class="node">
<title>src/infrastructure/EventShouldContainsTimestamp.js</title>
<ellipse fill="none" stroke="#cfffac" cx="5646.9476" cy="-234" rx="220.3146" ry="18"/>
<text text-anchor="middle" x="5646.9476" y="-230.8493" font-family="Arial" font-size="14.00" fill="#cfffac">src/infrastructure/EventShouldContainsTimestamp.js</text>
</g>
<!-- src/infrastructure/event&#45;store.js&#45;&gt;src/infrastructure/EventShouldContainsTimestamp.js -->
<g id="edge36" class="edge">
<title>src/infrastructure/event&#45;store.js&#45;&gt;src/infrastructure/EventShouldContainsTimestamp.js</title>
<path fill="none" stroke="#757575" d="M4941.8356,-295.8369C5084.0245,-283.3672 5325.8864,-262.1564 5486.0436,-248.111"/>
<polygon fill="#757575" stroke="#757575" points="5486.8168,-251.5567 5496.4728,-247.1963 5486.2052,-244.5834 5486.8168,-251.5567"/>
</g>
<!-- src/domain/demande&#45;financement&#45;id.js -->
<g id="node11" class="node">
<title>src/domain/demande&#45;financement&#45;id.js</title>
<ellipse fill="none" stroke="#cfffac" cx="1846.9476" cy="-90" rx="173.2483" ry="18"/>
<text text-anchor="middle" x="1846.9476" y="-86.8493" font-family="Arial" font-size="14.00" fill="#cfffac">src/domain/demande&#45;financement&#45;id.js</text>
</g>
<!-- src/query/read&#45;api/app.js&#45;&gt;src/domain/demande&#45;financement&#45;id.js -->
<g id="edge38" class="edge">
<title>src/query/read&#45;api/app.js&#45;&gt;src/domain/demande&#45;financement&#45;id.js</title>
<path fill="none" stroke="#757575" d="M2780.6232,-227.2874C2678.5006,-219.5173 2532.3659,-204.5407 2480.9476,-180 2459.9519,-169.9793 2464.1485,-153.579 2442.9476,-144 2437.8067,-141.6772 2165.0914,-117.6319 1990.3854,-102.421"/>
<polygon fill="#757575" stroke="#757575" points="1990.5902,-98.9257 1980.3244,-101.5454 1989.9832,-105.8993 1990.5902,-98.9257"/>
</g>
<!-- src/domain/demande&#45;financement.js -->
<g id="node16" class="node">
<title>src/domain/demande&#45;financement.js</title>
<ellipse fill="none" stroke="#c6c5fe" cx="2652.9476" cy="-162" rx="162.8052" ry="18"/>
<text text-anchor="middle" x="2652.9476" y="-158.8493" font-family="Arial" font-size="14.00" fill="#c6c5fe">src/domain/demande&#45;financement.js</text>
</g>
<!-- src/query/read&#45;api/app.js&#45;&gt;src/domain/demande&#45;financement.js -->
<g id="edge39" class="edge">
<title>src/query/read&#45;api/app.js&#45;&gt;src/domain/demande&#45;financement.js</title>
<path fill="none" stroke="#757575" d="M2834.7247,-217.9314C2800.2269,-207.3167 2754.7577,-193.3262 2717.9254,-181.9932"/>
<polygon fill="#757575" stroke="#757575" points="2718.8592,-178.6186 2708.2721,-179.0229 2716.8006,-185.3091 2718.8592,-178.6186"/>
</g>
<!-- src/query/core/repositories/repository.js -->
<g id="node32" class="node">
<title>src/query/core/repositories/repository.js</title>
<ellipse fill="none" stroke="#c6c5fe" cx="4347.9476" cy="-162" rx="174.4996" ry="18"/>
<text text-anchor="middle" x="4347.9476" y="-158.8493" font-family="Arial" font-size="14.00" fill="#c6c5fe">src/query/core/repositories/repository.js</text>
</g>
<!-- src/query/read&#45;api/app.js&#45;&gt;src/query/core/repositories/repository.js -->
<g id="edge40" class="edge">
<title>src/query/read&#45;api/app.js&#45;&gt;src/query/core/repositories/repository.js</title>
<path fill="none" stroke="#757575" d="M2966.86,-221.0634C2981.1757,-219.1007 2995.98,-217.3003 3009.9476,-216 3038.5086,-213.3412 3818.6943,-182.6707 4174.2874,-168.7721"/>
<polygon fill="#757575" stroke="#757575" points="4174.5679,-172.2639 4184.4236,-168.3759 4174.2945,-165.2692 4174.5679,-172.2639"/>
</g>
<!-- src/query/read&#45;api/errors/HTTPRequestShouldHaveXRequestID.js -->
<g id="node33" class="node">
<title>src/query/read&#45;api/errors/HTTPRequestShouldHaveXRequestID.js</title>
<ellipse fill="none" stroke="#cfffac" cx="3120.9476" cy="-162" rx="287.6109" ry="18"/>
<text text-anchor="middle" x="3120.9476" y="-158.8493" font-family="Arial" font-size="14.00" fill="#cfffac">src/query/read&#45;api/errors/HTTPRequestShouldHaveXRequestID.js</text>
</g>
<!-- src/query/read&#45;api/app.js&#45;&gt;src/query/read&#45;api/errors/HTTPRequestShouldHaveXRequestID.js -->
<g id="edge41" class="edge">
<title>src/query/read&#45;api/app.js&#45;&gt;src/query/read&#45;api/errors/HTTPRequestShouldHaveXRequestID.js</title>
<path fill="none" stroke="#757575" d="M2939.1706,-217.9314C2973.0501,-207.5069 3017.5114,-193.8265 3053.9815,-182.605"/>
<polygon fill="#757575" stroke="#757575" points="3055.0254,-185.9458 3063.5538,-179.6596 3052.9667,-179.2553 3055.0254,-185.9458"/>
</g>
<!-- src/query/read&#45;api/middlewares/ensure&#45;logged&#45;in.js -->
<g id="node34" class="node">
<title>src/query/read&#45;api/middlewares/ensure&#45;logged&#45;in.js</title>
<ellipse fill="none" stroke="#cfffac" cx="3651.9476" cy="-162" rx="224.9426" ry="18"/>
<text text-anchor="middle" x="3651.9476" y="-158.8493" font-family="Arial" font-size="14.00" fill="#cfffac">src/query/read&#45;api/middlewares/ensure&#45;logged&#45;in.js</text>
</g>
<!-- src/query/read&#45;api/app.js&#45;&gt;src/query/read&#45;api/middlewares/ensure&#45;logged&#45;in.js -->
<g id="edge42" class="edge">
<title>src/query/read&#45;api/app.js&#45;&gt;src/query/read&#45;api/middlewares/ensure&#45;logged&#45;in.js</title>
<path fill="none" stroke="#757575" d="M2968.5661,-221.3387C2982.3592,-219.4048 2996.5476,-217.5426 3009.9476,-216 3097.5439,-205.9162 3320.7537,-187.7709 3479.3107,-175.3186"/>
<polygon fill="#757575" stroke="#757575" points="3479.9633,-178.7783 3489.6589,-174.5068 3479.4158,-171.7997 3479.9633,-178.7783"/>
</g>
<!-- src/command/core/command&#45;handlers/ErrorValidation.js -->
<g id="node9" class="node">
<title>src/command/core/command&#45;handlers/ErrorValidation.js</title>
<ellipse fill="none" stroke="#cfffac" cx="1359.9476" cy="-90" rx="245.4028" ry="18"/>
<text text-anchor="middle" x="1359.9476" y="-86.8493" font-family="Arial" font-size="14.00" fill="#cfffac">src/command/core/command&#45;handlers/ErrorValidation.js</text>
</g>
<!-- src/command/core/command&#45;handlers/demande&#45;financement/add&#45;montant&#45;demande.js -->
<g id="node10" class="node">
<title>src/command/core/command&#45;handlers/demande&#45;financement/add&#45;montant&#45;demande.js</title>
<ellipse fill="none" stroke="#c6c5fe" cx="2058.9476" cy="-162" rx="375.0819" ry="18"/>
<text text-anchor="middle" x="2058.9476" y="-158.8493" font-family="Arial" font-size="14.00" fill="#c6c5fe">src/command/core/command&#45;handlers/demande&#45;financement/add&#45;montant&#45;demande.js</text>
</g>
<!-- src/command/core/command&#45;handlers/demande&#45;financement/add&#45;montant&#45;demande.js&#45;&gt;src/command/core/command&#45;handlers/ErrorValidation.js -->
<g id="edge8" class="edge">
<title>src/command/core/command&#45;handlers/demande&#45;financement/add&#45;montant&#45;demande.js&#45;&gt;src/command/core/command&#45;handlers/ErrorValidation.js</title>
<path fill="none" stroke="#757575" d="M1900.3337,-145.6621C1784.2066,-133.7005 1627.5215,-117.5613 1512.7731,-105.7417"/>
<polygon fill="#757575" stroke="#757575" points="1512.8063,-102.2267 1502.5003,-104.6835 1512.089,-109.1898 1512.8063,-102.2267"/>
</g>
<!-- src/command/core/command&#45;handlers/demande&#45;financement/add&#45;montant&#45;demande.js&#45;&gt;src/domain/demande&#45;financement&#45;id.js -->
<g id="edge9" class="edge">
<title>src/command/core/command&#45;handlers/demande&#45;financement/add&#45;montant&#45;demande.js&#45;&gt;src/domain/demande&#45;financement&#45;id.js</title>
<path fill="none" stroke="#757575" d="M2006.2708,-144.1097C1976.3941,-133.9629 1938.8754,-121.2208 1907.7525,-110.6507"/>
<polygon fill="#757575" stroke="#757575" points="1908.4846,-107.2031 1897.8902,-107.3013 1906.2335,-113.8312 1908.4846,-107.2031"/>
</g>
<!-- src/command/core/command&#45;handlers/demande&#45;financement/create.js -->
<g id="node12" class="node">
<title>src/command/core/command&#45;handlers/demande&#45;financement/create.js</title>
<ellipse fill="none" stroke="#c6c5fe" cx="729.9476" cy="-162" rx="306.289" ry="18"/>
<text text-anchor="middle" x="729.9476" y="-158.8493" font-family="Arial" font-size="14.00" fill="#c6c5fe">src/command/core/command&#45;handlers/demande&#45;financement/create.js</text>
</g>
<!-- src/command/core/command&#45;handlers/demande&#45;financement/create.js&#45;&gt;src/command/core/command&#45;handlers/ErrorValidation.js -->
<g id="edge10" class="edge">
<title>src/command/core/command&#45;handlers/demande&#45;financement/create.js&#45;&gt;src/command/core/command&#45;handlers/ErrorValidation.js</title>
<path fill="none" stroke="#757575" d="M870.1562,-145.9762C973.5106,-134.1642 1113.5999,-118.154 1217.4835,-106.2816"/>
<polygon fill="#757575" stroke="#757575" points="1217.8834,-109.7588 1227.4213,-105.1459 1217.0885,-102.8041 1217.8834,-109.7588"/>
</g>
<!-- src/command/core/command&#45;handlers/demande&#45;financement/delete.js -->
<g id="node13" class="node">
<title>src/command/core/command&#45;handlers/demande&#45;financement/delete.js</title>
<ellipse fill="none" stroke="#c6c5fe" cx="1359.9476" cy="-162" rx="305.7584" ry="18"/>
<text text-anchor="middle" x="1359.9476" y="-158.8493" font-family="Arial" font-size="14.00" fill="#c6c5fe">src/command/core/command&#45;handlers/demande&#45;financement/delete.js</text>
</g>
<!-- src/command/core/command&#45;handlers/demande&#45;financement/delete.js&#45;&gt;src/command/core/command&#45;handlers/ErrorValidation.js -->
<g id="edge11" class="edge">
<title>src/command/core/command&#45;handlers/demande&#45;financement/delete.js&#45;&gt;src/command/core/command&#45;handlers/ErrorValidation.js</title>
<path fill="none" stroke="#757575" d="M1359.9476,-143.8314C1359.9476,-136.131 1359.9476,-126.9743 1359.9476,-118.4166"/>
<polygon fill="#757575" stroke="#757575" points="1363.4477,-118.4132 1359.9476,-108.4133 1356.4477,-118.4133 1363.4477,-118.4132"/>
</g>
<!-- src/command/core/command&#45;handlers/demande&#45;financement/delete.js&#45;&gt;src/domain/demande&#45;financement&#45;id.js -->
<g id="edge12" class="edge">
<title>src/command/core/command&#45;handlers/demande&#45;financement/delete.js&#45;&gt;src/domain/demande&#45;financement&#45;id.js</title>
<path fill="none" stroke="#757575" d="M1473.206,-145.2554C1552.7081,-133.5015 1658.4575,-117.8671 1737.1768,-106.229"/>
<polygon fill="#757575" stroke="#757575" points="1737.7442,-109.6832 1747.1247,-104.7582 1736.7203,-102.7585 1737.7442,-109.6832"/>
</g>
<!-- src/command/core/command&#45;handlers/demande&#45;financement/index.js&#45;&gt;src/command/core/command&#45;handlers/demande&#45;financement/add&#45;montant&#45;demande.js -->
<g id="edge13" class="edge">
<title>src/command/core/command&#45;handlers/demande&#45;financement/index.js&#45;&gt;src/command/core/command&#45;handlers/demande&#45;financement/add&#45;montant&#45;demande.js</title>
<path fill="none" stroke="#757575" d="M1793.986,-216.6626C1845.1468,-206.1079 1910.6471,-192.595 1963.7221,-181.6454"/>
<polygon fill="#757575" stroke="#757575" points="1964.7354,-185.0101 1973.822,-179.5617 1963.3211,-178.1545 1964.7354,-185.0101"/>
</g>
<!-- src/command/core/command&#45;handlers/demande&#45;financement/index.js&#45;&gt;src/command/core/command&#45;handlers/demande&#45;financement/create.js -->
<g id="edge14" class="edge">
<title>src/command/core/command&#45;handlers/demande&#45;financement/index.js&#45;&gt;src/command/core/command&#45;handlers/demande&#45;financement/create.js</title>
<path fill="none" stroke="#757575" d="M1519.5409,-220.0109C1350.4642,-207.589 1104.1543,-189.4927 931.7239,-176.8244"/>
<polygon fill="#757575" stroke="#757575" points="931.7381,-173.3161 921.5085,-176.0739 931.2251,-180.2973 931.7381,-173.3161"/>
</g>
<!-- src/command/core/command&#45;handlers/demande&#45;financement/index.js&#45;&gt;src/command/core/command&#45;handlers/demande&#45;financement/delete.js -->
<g id="edge15" class="edge">
<title>src/command/core/command&#45;handlers/demande&#45;financement/index.js&#45;&gt;src/command/core/command&#45;handlers/demande&#45;financement/delete.js</title>
<path fill="none" stroke="#757575" d="M1625.6685,-216.6626C1573.8736,-206.0076 1507.4235,-192.3379 1453.9322,-181.334"/>
<polygon fill="#757575" stroke="#757575" points="1454.6016,-177.8984 1444.1014,-179.3116 1453.1911,-184.7549 1454.6016,-177.8984"/>
</g>
<!-- src/command/core/repositories/repository.js -->
<g id="node15" class="node">
<title>src/command/core/repositories/repository.js</title>
<ellipse fill="none" stroke="#c6c5fe" cx="213.9476" cy="-162" rx="192.1013" ry="18"/>
<text text-anchor="middle" x="213.9476" y="-158.8493" font-family="Arial" font-size="14.00" fill="#c6c5fe">src/command/core/repositories/repository.js</text>
</g>
<!-- src/command/core/command&#45;handlers/demande&#45;financement/index.js&#45;&gt;src/command/core/repositories/repository.js -->
<g id="edge16" class="edge">
<title>src/command/core/command&#45;handlers/demande&#45;financement/index.js&#45;&gt;src/command/core/repositories/repository.js</title>
<path fill="none" stroke="#757575" d="M1435.9539,-226.363C1173.7,-218.1572 767.0534,-203.094 414.9476,-180 396.6484,-178.7998 377.4293,-177.3379 358.4316,-175.7715"/>
<polygon fill="#757575" stroke="#757575" points="358.4734,-172.2628 348.2166,-174.9177 357.8903,-179.2385 358.4734,-172.2628"/>
</g>
<!-- src/command/core/command&#45;handlers/demande&#45;financement/index.js&#45;&gt;src/domain/demande&#45;financement.js -->
<g id="edge17" class="edge">
<title>src/command/core/command&#45;handlers/demande&#45;financement/index.js&#45;&gt;src/domain/demande&#45;financement.js</title>
<path fill="none" stroke="#757575" d="M1905.2245,-220.2522C2052.9284,-209.6988 2260.7357,-194.5203 2442.9476,-180 2466.2469,-178.1433 2490.9931,-176.0925 2515.0136,-174.0601"/>
<polygon fill="#757575" stroke="#757575" points="2515.5892,-177.5239 2525.2574,-173.1908 2514.9972,-170.549 2515.5892,-177.5239"/>
</g>
<!-- src/command/core/repositories/ErrorNotFound.js -->
<g id="node17" class="node">
<title>src/command/core/repositories/ErrorNotFound.js</title>
<ellipse fill="none" stroke="#cfffac" cx="213.9476" cy="-90" rx="213.8953" ry="18"/>
<text text-anchor="middle" x="213.9476" y="-86.8493" font-family="Arial" font-size="14.00" fill="#cfffac">src/command/core/repositories/ErrorNotFound.js</text>
</g>
<!-- src/command/core/repositories/repository.js&#45;&gt;src/command/core/repositories/ErrorNotFound.js -->
<g id="edge19" class="edge">
<title>src/command/core/repositories/repository.js&#45;&gt;src/command/core/repositories/ErrorNotFound.js</title>
<path fill="none" stroke="#757575" d="M213.9476,-143.8314C213.9476,-136.131 213.9476,-126.9743 213.9476,-118.4166"/>
<polygon fill="#757575" stroke="#757575" points="217.4477,-118.4132 213.9476,-108.4133 210.4477,-118.4133 217.4477,-118.4132"/>
</g>
<!-- src/domain/demande&#45;financement.js&#45;&gt;src/domain/demande&#45;financement&#45;id.js -->
<g id="edge24" class="edge">
<title>src/domain/demande&#45;financement.js&#45;&gt;src/domain/demande&#45;financement&#45;id.js</title>
<path fill="none" stroke="#757575" d="M2534.4437,-149.6168C2514.9074,-147.6707 2494.8644,-145.7321 2475.9476,-144 2279.6737,-126.0287 2230.2692,-125.4427 2033.9476,-108 2017.4495,-106.5342 2000.1382,-104.9416 1982.9856,-103.3302"/>
<polygon fill="#757575" stroke="#757575" points="1983.1965,-99.8347 1972.912,-102.3801 1982.5392,-106.8037 1983.1965,-99.8347"/>
</g>
<!-- src/domain/ErrorDomainValidation.js -->
<g id="node20" class="node">
<title>src/domain/ErrorDomainValidation.js</title>
<ellipse fill="none" stroke="#cfffac" cx="2600.9476" cy="-90" rx="162.9676" ry="18"/>
<text text-anchor="middle" x="2600.9476" y="-86.8493" font-family="Arial" font-size="14.00" fill="#cfffac">src/domain/ErrorDomainValidation.js</text>
</g>
<!-- src/domain/demande&#45;financement.js&#45;&gt;src/domain/ErrorDomainValidation.js -->
<g id="edge22" class="edge">
<title>src/domain/demande&#45;financement.js&#45;&gt;src/domain/ErrorDomainValidation.js</title>
<path fill="none" stroke="#757575" d="M2639.8258,-143.8314C2633.8978,-135.6232 2626.7747,-125.7606 2620.2543,-116.7323"/>
<polygon fill="#757575" stroke="#757575" points="2622.9384,-114.4708 2614.2461,-108.4133 2617.2637,-118.5693 2622.9384,-114.4708"/>
</g>
<!-- src/domain/ErrorPermissions.js -->
<g id="node21" class="node">
<title>src/domain/ErrorPermissions.js</title>
<ellipse fill="none" stroke="#cfffac" cx="2922.9476" cy="-90" rx="141.2871" ry="18"/>
<text text-anchor="middle" x="2922.9476" y="-86.8493" font-family="Arial" font-size="14.00" fill="#cfffac">src/domain/ErrorPermissions.js</text>
</g>
<!-- src/domain/demande&#45;financement.js&#45;&gt;src/domain/ErrorPermissions.js -->
<g id="edge23" class="edge">
<title>src/domain/demande&#45;financement.js&#45;&gt;src/domain/ErrorPermissions.js</title>
<path fill="none" stroke="#757575" d="M2715.5697,-145.3008C2756.3257,-134.4325 2809.5771,-120.2322 2851.9127,-108.9427"/>
<polygon fill="#757575" stroke="#757575" points="2852.8355,-112.3189 2861.5961,-106.3604 2851.0319,-105.5553 2852.8355,-112.3189"/>
</g>
<!-- src/domain/event&#45;demande&#45;financement&#45;created.js -->
<g id="node22" class="node">
<title>src/domain/event&#45;demande&#45;financement&#45;created.js</title>
<ellipse fill="none" stroke="#c6c5fe" cx="3305.9476" cy="-90" rx="223.3141" ry="18"/>
<text text-anchor="middle" x="3305.9476" y="-86.8493" font-family="Arial" font-size="14.00" fill="#c6c5fe">src/domain/event&#45;demande&#45;financement&#45;created.js</text>
</g>
<!-- src/domain/demande&#45;financement.js&#45;&gt;src/domain/event&#45;demande&#45;financement&#45;created.js -->
<g id="edge25" class="edge">
<title>src/domain/demande&#45;financement.js&#45;&gt;src/domain/event&#45;demande&#45;financement&#45;created.js</title>
<path fill="none" stroke="#757575" d="M2768.1878,-149.2936C2878.4765,-137.1331 3045.1255,-118.7583 3163.6454,-105.6903"/>
<polygon fill="#757575" stroke="#757575" points="3164.327,-109.1364 3173.8832,-104.5615 3163.5598,-102.1786 3164.327,-109.1364"/>
</g>
<!-- src/domain/event&#45;demande&#45;financement&#45;deleted.js -->
<g id="node23" class="node">
<title>src/domain/event&#45;demande&#45;financement&#45;deleted.js</title>
<ellipse fill="none" stroke="#c6c5fe" cx="3769.9476" cy="-90" rx="222.7835" ry="18"/>
<text text-anchor="middle" x="3769.9476" y="-86.8493" font-family="Arial" font-size="14.00" fill="#c6c5fe">src/domain/event&#45;demande&#45;financement&#45;deleted.js</text>
</g>
<!-- src/domain/demande&#45;financement.js&#45;&gt;src/domain/event&#45;demande&#45;financement&#45;deleted.js -->
<g id="edge26" class="edge">
<title>src/domain/demande&#45;financement.js&#45;&gt;src/domain/event&#45;demande&#45;financement&#45;deleted.js</title>
<path fill="none" stroke="#757575" d="M2766.9258,-149.1287C2785.951,-147.2311 2805.4954,-145.4353 2823.9476,-144 3140.7272,-119.3598 3220.8598,-128.2909 3537.9476,-108 3558.9247,-106.6576 3580.9586,-105.1174 3602.753,-103.5151"/>
<polygon fill="#757575" stroke="#757575" points="3603.031,-107.0042 3612.7451,-102.7751 3602.5139,-100.0233 3603.031,-107.0042"/>
</g>
<!-- src/domain/event&#45;montant&#45;demande&#45;added.js -->
<g id="node24" class="node">
<title>src/domain/event&#45;montant&#45;demande&#45;added.js</title>
<ellipse fill="none" stroke="#c6c5fe" cx="4211.9476" cy="-90" rx="200.79" ry="18"/>
<text text-anchor="middle" x="4211.9476" y="-86.8493" font-family="Arial" font-size="14.00" fill="#c6c5fe">src/domain/event&#45;montant&#45;demande&#45;added.js</text>
</g>
<!-- src/domain/demande&#45;financement.js&#45;&gt;src/domain/event&#45;montant&#45;demande&#45;added.js -->
<g id="edge27" class="edge">
<title>src/domain/demande&#45;financement.js&#45;&gt;src/domain/event&#45;montant&#45;demande&#45;added.js</title>
<path fill="none" stroke="#757575" d="M2765.5227,-148.9487C2784.9842,-147.0364 2805.0354,-145.2826 2823.9476,-144 3346.5472,-108.5586 3479.0293,-138.378 4001.9476,-108 4021.647,-106.8556 4042.3653,-105.3946 4062.7991,-103.8012"/>
<polygon fill="#757575" stroke="#757575" points="4063.1093,-107.2877 4072.8017,-103.0092 4062.5566,-100.3096 4063.1093,-107.2877"/>
</g>
<!-- src/infrastructure/decision&#45;projection.js -->
<g id="node25" class="node">
<title>src/infrastructure/decision&#45;projection.js</title>
<ellipse fill="none" stroke="#cfffac" cx="2247.9476" cy="-90" rx="171.5737" ry="18"/>
<text text-anchor="middle" x="2247.9476" y="-86.8493" font-family="Arial" font-size="14.00" fill="#cfffac">src/infrastructure/decision&#45;projection.js</text>
</g>
<!-- src/domain/demande&#45;financement.js&#45;&gt;src/infrastructure/decision&#45;projection.js -->
<g id="edge28" class="edge">
<title>src/domain/demande&#45;financement.js&#45;&gt;src/infrastructure/decision&#45;projection.js</title>
<path fill="none" stroke="#757575" d="M2566.5617,-146.6425C2501.7073,-135.1128 2412.853,-119.3165 2345.452,-107.3341"/>
<polygon fill="#757575" stroke="#757575" points="2345.706,-103.8245 2335.2477,-105.52 2344.4807,-110.7164 2345.706,-103.8245"/>
</g>
<!-- src/infrastructure/idGenerator.js -->
<g id="node26" class="node">
<title>src/infrastructure/idGenerator.js</title>
<ellipse fill="none" stroke="#cfffac" cx="3537.9476" cy="-18" rx="142.4221" ry="18"/>
<text text-anchor="middle" x="3537.9476" y="-14.8493" font-family="Arial" font-size="14.00" fill="#cfffac">src/infrastructure/idGenerator.js</text>
</g>
<!-- src/domain/demande&#45;financement.js&#45;&gt;src/infrastructure/idGenerator.js -->
<g id="edge29" class="edge">
<title>src/domain/demande&#45;financement.js&#45;&gt;src/infrastructure/idGenerator.js</title>
<path fill="none" stroke="#757575" d="M2533.9572,-149.6759C2514.5729,-147.7325 2494.7049,-145.7792 2475.9476,-144 2430.5313,-139.6921 2097.7593,-141.6428 2066.9476,-108 2056.1413,-96.2007 2055.8434,-83.5194 2066.9476,-72 2089.6325,-48.4671 3016.0749,-28.0505 3386.8526,-20.8063"/>
<polygon fill="#757575" stroke="#757575" points="3387.1914,-24.3004 3397.1213,-20.6062 3387.055,-17.3017 3387.1914,-24.3004"/>
</g>
<!-- src/domain/event&#45;demande&#45;financement&#45;created.js&#45;&gt;src/infrastructure/idGenerator.js -->
<g id="edge30" class="edge">
<title>src/domain/event&#45;demande&#45;financement&#45;created.js&#45;&gt;src/infrastructure/idGenerator.js</title>
<path fill="none" stroke="#757575" d="M3362.1084,-72.5708C3395.9402,-62.0713 3439.1236,-48.6695 3474.2288,-37.7748"/>
<polygon fill="#757575" stroke="#757575" points="3475.3884,-41.0797 3483.9016,-34.7729 3473.3135,-34.3942 3475.3884,-41.0797"/>
</g>
<!-- src/domain/event&#45;demande&#45;financement&#45;deleted.js&#45;&gt;src/infrastructure/idGenerator.js -->
<g id="edge31" class="edge">
<title>src/domain/event&#45;demande&#45;financement&#45;deleted.js&#45;&gt;src/infrastructure/idGenerator.js</title>
<path fill="none" stroke="#757575" d="M3713.7869,-72.5708C3679.9551,-62.0713 3636.7717,-48.6695 3601.6665,-37.7748"/>
<polygon fill="#757575" stroke="#757575" points="3602.5818,-34.3942 3591.9937,-34.7729 3600.5069,-41.0797 3602.5818,-34.3942"/>
</g>
<!-- src/domain/event&#45;montant&#45;demande&#45;added.js&#45;&gt;src/infrastructure/idGenerator.js -->
<g id="edge32" class="edge">
<title>src/domain/event&#45;montant&#45;demande&#45;added.js&#45;&gt;src/infrastructure/idGenerator.js</title>
<path fill="none" stroke="#757575" d="M4082.7911,-76.2029C3959.8526,-63.07 3776.3702,-43.4695 3656.9205,-30.7093"/>
<polygon fill="#757575" stroke="#757575" points="3656.9577,-27.1934 3646.6424,-29.6113 3656.2141,-34.1538 3656.9577,-27.1934"/>
</g>
<!-- src/query/core/repositories/ErrorNotFound.js -->
<g id="node31" class="node">
<title>src/query/core/repositories/ErrorNotFound.js</title>
<ellipse fill="none" stroke="#cfffac" cx="4626.9476" cy="-90" rx="196.2939" ry="18"/>
<text text-anchor="middle" x="4626.9476" y="-86.8493" font-family="Arial" font-size="14.00" fill="#cfffac">src/query/core/repositories/ErrorNotFound.js</text>
</g>
<!-- src/query/core/repositories/repository.js&#45;&gt;src/query/core/repositories/ErrorNotFound.js -->
<g id="edge37" class="edge">
<title>src/query/core/repositories/repository.js&#45;&gt;src/query/core/repositories/ErrorNotFound.js</title>
<path fill="none" stroke="#757575" d="M4413.0086,-145.2101C4454.2386,-134.5701 4507.7374,-120.7639 4550.9217,-109.6196"/>
<polygon fill="#757575" stroke="#757575" points="4552.0065,-112.9544 4560.8147,-107.0666 4550.2573,-106.1764 4552.0065,-112.9544"/>
</g>
</g>
</svg>
